<svg width="119" height="20" viewBox="0 0 119 20" fill="none" xmlns="http://www.w3.org/2000/svg">
<g clip-path="url(#clip0_69_2)">
<mask id="mask0_69_2" style="mask-type:luminance" maskUnits="userSpaceOnUse" x="0" y="0" width="30" height="20">
<path d="M29.2904 0H0.666626V20H29.2904V0Z" fill="white"/>
</mask>
<g mask="url(#mask0_69_2)">
<path d="M14.861 18.5455C12.5828 18.4849 10.3046 18.7273 8.02634 19.2122C7.96793 19.2122 7.96793 19.2122 7.90951 19.2122C7.8511 19.2122 7.8511 19.2122 7.79268 19.1516C7.73426 19.1516 7.73426 19.091 7.73426 19.091C7.73426 19.0304 7.79268 18.9481 7.73426 18.8875C7.73426 16.7057 7.38377 14.6061 6.91644 12.4243" stroke="#A3A3A3" stroke-width="0.882353" stroke-miterlimit="10" stroke-linecap="round"/>
<path d="M14.8025 18.5455C17.0807 18.4849 18.9057 18.6061 21.1839 19.091C21.2423 19.091 21.6941 19.2122 21.7525 19.2122C21.8109 19.2122 21.8124 19.2122 21.8708 19.1516C21.9292 19.1516 21.9292 19.091 21.9292 19.091C21.9292 19.0304 21.9292 19.0304 21.9292 18.9698C21.9292 16.788 22.2213 14.6061 22.6886 12.4243" stroke="#A3A3A3" stroke-width="0.882353" stroke-miterlimit="10" stroke-linecap="round"/>
<path d="M14.8616 15.7577C12.4081 15.6971 9.95468 15.9395 7.61804 16.4244" stroke="#A3A3A3" stroke-width="0.882353" stroke-miterlimit="10" stroke-linecap="round"/>
<path d="M14.5105 15.7577C16.964 15.6971 19.4174 15.9395 21.8125 16.4244" stroke="#A3A3A3" stroke-width="0.882353" stroke-miterlimit="10" stroke-linecap="round"/>
<path d="M8.37722 11.6971C8.14356 11.8183 7.96831 11.8789 7.73465 11.9395C7.2089 12.1213 6.62475 12.182 6.099 12.182H5.63168C4.75544 12.1213 3.8792 11.8183 3.06138 11.3335L2.88613 11.2123C2.41881 10.9092 2.00989 10.485 1.71782 9.93953C1.42574 9.39407 1.25049 8.84862 1.25049 8.24256C1.25049 6.42438 2.82772 4.84862 4.87227 4.42438C5.80692 4.24256 6.74158 4.24256 7.67623 4.54559" stroke="#A3A3A3" stroke-width="0.882353" stroke-miterlimit="10" stroke-linecap="round"/>
<path d="M21.2283 11.6972C21.4619 11.8184 21.6372 11.879 21.8708 11.9396C22.3966 12.1214 22.9807 12.182 23.5065 12.182H23.9154C24.8501 12.1214 25.7263 11.8184 26.4857 11.3335C26.5441 11.2729 26.6025 11.2729 26.6609 11.2123C27.1283 10.9093 27.5372 10.485 27.8293 9.93959C28.1213 9.45474 28.2966 8.84868 28.2966 8.24262C28.2966 6.42444 26.7778 4.84868 24.6748 4.42443C24.2659 4.36383 23.9154 4.30322 23.5065 4.30322C22.9807 4.30322 22.3966 4.36383 21.8708 4.54565" stroke="#A3A3A3" stroke-width="0.882353" stroke-miterlimit="10" stroke-linecap="round"/>
<path d="M24.15 6.96989H23.7995C23.3906 6.96989 22.9817 6.78807 22.6896 6.54565C22.3391 6.24262 22.3391 5.51535 22.1638 5.15171C22.047 4.96989 21.8718 4.48504 21.8718 4.42444" stroke="#A3A3A3" stroke-width="0.882353" stroke-miterlimit="10" stroke-linecap="round"/>
<path d="M7.73444 4.5456C8.78592 2.24257 11.5899 0.606201 14.8028 0.606201C18.0156 0.606201 20.8196 2.24257 21.8711 4.5456" stroke="#A3A3A3" stroke-width="0.882353" stroke-miterlimit="10" stroke-linecap="round"/>
<path d="M19.7686 11.2123C18.3666 11.6971 16.9646 11.9396 15.5042 11.9396C14.1022 12.0002 12.7002 11.7577 11.4151 11.2729" stroke="#A3A3A3" stroke-width="0.882353" stroke-miterlimit="10" stroke-linecap="round"/>
</g>
<path d="M41.2423 13.8133C41.775 13.8133 42.24 13.7381 42.6372 13.5878C43.0391 13.4326 43.3312 13.2799 43.5135 13.1296L44.1444 14.4387C43.9341 14.6326 43.5672 14.829 43.0438 15.0278C42.5204 15.2266 41.8942 15.326 41.1652 15.326C40.4829 15.326 39.8473 15.1999 39.2585 14.9478C38.6696 14.6957 38.1532 14.3466 37.7093 13.9005C37.2653 13.4496 36.9195 12.9236 36.6718 12.3223C36.4241 11.7211 36.3003 11.069 36.3003 10.366C36.3003 9.66295 36.4241 9.00841 36.6718 8.40235C36.9195 7.79629 37.263 7.2678 37.7023 6.81689C38.1462 6.36598 38.6626 6.01447 39.2515 5.76235C39.845 5.50538 40.4829 5.37689 41.1652 5.37689C41.8942 5.37689 42.5204 5.47629 43.0438 5.67507C43.5672 5.87386 43.9341 6.07023 44.1444 6.26417L43.5135 7.57326C43.3312 7.42295 43.0391 7.27265 42.6372 7.12235C42.24 6.9672 41.775 6.88962 41.2423 6.88962C40.7376 6.88962 40.2796 6.97689 39.8683 7.15144C39.4571 7.32598 39.1043 7.57083 38.8098 7.88598C38.5154 8.20113 38.2888 8.56962 38.1299 8.99144C37.971 9.40841 37.8915 9.85932 37.8915 10.3442C37.8915 10.8339 37.971 11.2896 38.1299 11.7114C38.2888 12.1333 38.5154 12.5017 38.8098 12.8169C39.1043 13.132 39.4571 13.3769 39.8683 13.5514C40.2796 13.726 40.7376 13.8133 41.2423 13.8133ZM48.2042 15.326C47.6013 15.326 47.0639 15.1902 46.5919 14.9187C46.1246 14.6423 45.7577 14.269 45.4913 13.7987C45.2249 13.3236 45.0918 12.7854 45.0918 12.1842C45.0918 11.583 45.2249 11.0423 45.4913 10.5623C45.7577 10.0823 46.1246 9.70416 46.5919 9.4278C47.0639 9.14659 47.6013 9.00598 48.2042 9.00598C48.807 9.00598 49.3398 9.14659 49.8024 9.4278C50.2651 9.70416 50.6272 10.0823 50.8889 10.5623C51.1553 11.0423 51.2885 11.583 51.2885 12.1842C51.2885 12.7854 51.1553 13.3236 50.8889 13.7987C50.6272 14.269 50.2651 14.6423 49.8024 14.9187C49.3398 15.1902 48.807 15.326 48.2042 15.326ZM48.2042 14.0169C48.5406 14.0169 48.8327 13.9369 49.0804 13.7769C49.3281 13.6169 49.5197 13.3987 49.6552 13.1223C49.7907 12.846 49.8585 12.5308 49.8585 12.1769C49.8585 11.823 49.7907 11.5078 49.6552 11.2314C49.5197 10.9502 49.3281 10.7272 49.0804 10.5623C48.8327 10.3975 48.5406 10.3151 48.2042 10.3151C47.8677 10.3151 47.5733 10.3975 47.3209 10.5623C47.0732 10.7272 46.8793 10.9502 46.7391 11.2314C46.6036 11.5078 46.5358 11.823 46.5358 12.1769C46.5358 12.5308 46.6036 12.846 46.7391 13.1223C46.8793 13.3987 47.0732 13.6169 47.3209 13.7769C47.5733 13.9369 47.8677 14.0169 48.2042 14.0169ZM55.2378 15.326C54.6349 15.326 54.0975 15.1902 53.6255 14.9187C53.1582 14.6423 52.7913 14.269 52.5249 13.7987C52.2586 13.3236 52.1254 12.7854 52.1254 12.1842C52.1254 11.583 52.2586 11.0423 52.5249 10.5623C52.7913 10.0823 53.1582 9.70416 53.6255 9.4278C54.0975 9.14659 54.6349 9.00598 55.2378 9.00598C55.8406 9.00598 56.3734 9.14659 56.836 9.4278C57.2984 9.70416 57.6606 10.0823 57.9223 10.5623C58.1887 11.0423 58.3219 11.583 58.3219 12.1842C58.3219 12.7854 58.1887 13.3236 57.9223 13.7987C57.6606 14.269 57.2984 14.6423 56.836 14.9187C56.3734 15.1902 55.8406 15.326 55.2378 15.326ZM55.2378 14.0169C55.5742 14.0169 55.8663 13.9369 56.114 13.7769C56.3617 13.6169 56.5533 13.3987 56.6888 13.1223C56.8243 12.846 56.8921 12.5308 56.8921 12.1769C56.8921 11.823 56.8243 11.5078 56.6888 11.2314C56.5533 10.9502 56.3617 10.7272 56.114 10.5623C55.8663 10.3975 55.5742 10.3151 55.2378 10.3151C54.9013 10.3151 54.6069 10.3975 54.3545 10.5623C54.1068 10.7272 53.9129 10.9502 53.7727 11.2314C53.6372 11.5078 53.5694 11.823 53.5694 12.1769C53.5694 12.5308 53.6372 12.846 53.7727 13.1223C53.9129 13.3987 54.1068 13.6169 54.3545 13.7769C54.6069 13.9369 54.9013 14.0169 55.2378 14.0169ZM63.1757 9.18053H64.9352L62.0401 12.0242L65.1525 15.1514H63.3649L60.8344 12.5842V15.1514H59.3342V5.14417H60.8344V11.4569L63.1757 9.18053ZM65.8377 15.1514V5.14417H67.3378V10.2205C67.3705 10.0751 67.4803 9.9078 67.6673 9.71871C67.8542 9.52962 68.1042 9.36477 68.4173 9.22416C68.7304 9.07871 69.0879 9.00598 69.4898 9.00598C70.0319 9.00598 70.5109 9.14174 70.9269 9.41326C71.3428 9.67992 71.6676 10.0508 71.9012 10.526C72.1396 11.0011 72.2587 11.549 72.2587 12.1696C72.2587 12.7902 72.1396 13.3381 71.9012 13.8133C71.6676 14.2884 71.3428 14.6593 70.9269 14.926C70.5109 15.1926 70.0319 15.326 69.4898 15.326C69.1206 15.326 68.7818 15.2557 68.4734 15.1151C68.1696 14.9696 67.9173 14.7975 67.7163 14.5987C67.5154 14.3999 67.3822 14.2157 67.3168 14.046V15.1514H65.8377ZM70.7797 12.1696C70.7797 11.7866 70.7025 11.452 70.5483 11.166C70.3941 10.8799 70.1908 10.6593 69.9385 10.5042C69.6861 10.3442 69.4081 10.2642 69.1043 10.2642C68.7772 10.2642 68.4804 10.3466 68.214 10.5114C67.9477 10.6714 67.735 10.8945 67.5761 11.1805C67.4172 11.4617 67.3378 11.7914 67.3378 12.1696C67.3378 12.5478 67.4172 12.8799 67.5761 13.166C67.735 13.4472 67.9477 13.6678 68.214 13.8278C68.4804 13.9878 68.7772 14.0678 69.1043 14.0678C69.4081 14.0678 69.6861 13.9902 69.9385 13.8351C70.1908 13.6799 70.3941 13.4593 70.5483 13.1733C70.7025 12.8872 70.7797 12.5526 70.7797 12.1696ZM76.0377 15.326C75.4348 15.326 74.8974 15.1902 74.4254 14.9187C73.9581 14.6423 73.5912 14.269 73.3248 13.7987C73.0585 13.3236 72.9253 12.7854 72.9253 12.1842C72.9253 11.583 73.0585 11.0423 73.3248 10.5623C73.5912 10.0823 73.9581 9.70416 74.4254 9.4278C74.8974 9.14659 75.4348 9.00598 76.0377 9.00598C76.6405 9.00598 77.1733 9.14659 77.6359 9.4278C78.0986 9.70416 78.4608 10.0823 78.7225 10.5623C78.9888 11.0423 79.122 11.583 79.122 12.1842C79.122 12.7854 78.9888 13.3236 78.7225 13.7987C78.4608 14.269 78.0986 14.6423 77.6359 14.9187C77.1733 15.1902 76.6405 15.326 76.0377 15.326ZM76.0377 14.0169C76.3741 14.0169 76.6662 13.9369 76.9139 13.7769C77.1616 13.6169 77.3532 13.3987 77.4887 13.1223C77.6242 12.846 77.692 12.5308 77.692 12.1769C77.692 11.823 77.6242 11.5078 77.4887 11.2314C77.3532 10.9502 77.1616 10.7272 76.9139 10.5623C76.6662 10.3975 76.3741 10.3151 76.0377 10.3151C75.7012 10.3151 75.4068 10.3975 75.1544 10.5623C74.9067 10.7272 74.7128 10.9502 74.5726 11.2314C74.4371 11.5078 74.3693 11.823 74.3693 12.1769C74.3693 12.5308 74.4371 12.846 74.5726 13.1223C74.7128 13.3987 74.9067 13.6169 75.1544 13.7769C75.4068 13.9369 75.7012 14.0169 76.0377 14.0169ZM83.0709 15.326C82.4681 15.326 81.9307 15.1902 81.4587 14.9187C80.9913 14.6423 80.6245 14.269 80.3581 13.7987C80.0917 13.3236 79.9585 12.7854 79.9585 12.1842C79.9585 11.583 80.0917 11.0423 80.3581 10.5623C80.6245 10.0823 80.9913 9.70416 81.4587 9.4278C81.9307 9.14659 82.4681 9.00598 83.0709 9.00598C83.6738 9.00598 84.2065 9.14659 84.6692 9.4278C85.1318 9.70416 85.494 10.0823 85.7557 10.5623C86.0221 11.0423 86.1553 11.583 86.1553 12.1842C86.1553 12.7854 86.0221 13.3236 85.7557 13.7987C85.494 14.269 85.1318 14.6423 84.6692 14.9187C84.2065 15.1902 83.6738 15.326 83.0709 15.326ZM83.0709 14.0169C83.4074 14.0169 83.6995 13.9369 83.9472 13.7769C84.1949 13.6169 84.3865 13.3987 84.522 13.1223C84.6575 12.846 84.7253 12.5308 84.7253 12.1769C84.7253 11.823 84.6575 11.5078 84.522 11.2314C84.3865 10.9502 84.1949 10.7272 83.9472 10.5623C83.6995 10.3975 83.4074 10.3151 83.0709 10.3151C82.7345 10.3151 82.44 10.3975 82.1877 10.5623C81.94 10.7272 81.7461 10.9502 81.6059 11.2314C81.4703 11.5078 81.4026 11.823 81.4026 12.1769C81.4026 12.5308 81.4703 12.846 81.6059 13.1223C81.7461 13.3987 81.94 13.6169 82.1877 13.7769C82.44 13.9369 82.7345 14.0169 83.0709 14.0169ZM91.0091 9.18053H92.7686L89.8735 12.0242L92.9859 15.1514H91.1983L88.6678 12.5842V15.1514H87.1676V5.14417H88.6678V11.4569L91.0091 9.18053ZM95.038 15.326C94.7529 15.326 94.5076 15.2217 94.302 15.0133C94.101 14.7999 94.0005 14.543 94.0005 14.2423C94.0005 13.9417 94.101 13.6848 94.302 13.4714C94.5076 13.2581 94.7529 13.1514 95.038 13.1514C95.3324 13.1514 95.5801 13.2581 95.7811 13.4714C95.9867 13.6848 96.0895 13.9417 96.0895 14.2423C96.0895 14.543 95.9867 14.7999 95.7811 15.0133C95.5801 15.2217 95.3324 15.326 95.038 15.326ZM100.47 15.326C99.928 15.326 99.449 15.1926 99.0331 14.926C98.6171 14.6593 98.29 14.2884 98.0517 13.8133C97.818 13.3381 97.7012 12.7902 97.7012 12.1696C97.7012 11.549 97.818 11.0011 98.0517 10.526C98.29 10.0508 98.6171 9.67992 99.0331 9.41326C99.449 9.14174 99.928 9.00598 100.47 9.00598C100.872 9.00598 101.229 9.07871 101.543 9.22416C101.856 9.36477 102.106 9.52962 102.293 9.71871C102.48 9.9078 102.589 10.0751 102.622 10.2205V5.14417H104.122V15.1514H102.643V14.046C102.578 14.2157 102.445 14.3999 102.244 14.5987C102.043 14.7975 101.788 14.9696 101.48 15.1151C101.176 15.2557 100.839 15.326 100.47 15.326ZM100.856 14.0678C101.183 14.0678 101.48 13.9878 101.746 13.8278C102.012 13.6678 102.225 13.4472 102.384 13.166C102.543 12.8799 102.622 12.5478 102.622 12.1696C102.622 11.7914 102.543 11.4617 102.384 11.1805C102.225 10.8945 102.012 10.6714 101.746 10.5114C101.48 10.3466 101.183 10.2642 100.856 10.2642C100.557 10.2642 100.278 10.3442 100.021 10.5042C99.7691 10.6593 99.5658 10.8799 99.4116 11.166C99.2574 11.452 99.1803 11.7866 99.1803 12.1696C99.1803 12.5526 99.2574 12.8872 99.4116 13.1733C99.5658 13.4593 99.7691 13.6799 100.021 13.8351C100.278 13.9902 100.557 14.0678 100.856 14.0678ZM106.414 12.5333C106.424 12.8484 106.496 13.132 106.632 13.3842C106.767 13.6363 106.966 13.8351 107.228 13.9805C107.494 14.1211 107.819 14.1914 108.202 14.1914C108.534 14.1914 108.819 14.1454 109.057 14.0533C109.3 13.9563 109.501 13.8423 109.66 13.7114C109.819 13.5757 109.936 13.4496 110.011 13.3333L110.677 14.2714C110.532 14.4751 110.349 14.6569 110.13 14.8169C109.91 14.9769 109.637 15.1005 109.31 15.1878C108.987 15.2799 108.588 15.326 108.111 15.326C107.485 15.326 106.94 15.1926 106.478 14.926C106.015 14.6593 105.655 14.2836 105.398 13.7987C105.146 13.3139 105.02 12.7466 105.02 12.0969C105.02 11.5151 105.136 10.9914 105.37 10.526C105.604 10.0557 105.942 9.68477 106.386 9.41326C106.835 9.14174 107.373 9.00598 107.999 9.00598C108.583 9.00598 109.09 9.12719 109.52 9.36962C109.95 9.61204 110.282 9.96113 110.515 10.4169C110.754 10.8678 110.873 11.4133 110.873 12.0533C110.873 12.092 110.87 12.172 110.866 12.2933C110.866 12.4145 110.861 12.4945 110.852 12.5333H106.414ZM109.471 11.3987C109.466 11.2436 109.415 11.0666 109.317 10.8678C109.223 10.669 109.071 10.4969 108.861 10.3514C108.651 10.2011 108.37 10.126 108.02 10.126C107.66 10.126 107.368 10.1987 107.144 10.3442C106.919 10.4848 106.753 10.6545 106.646 10.8533C106.538 11.0472 106.475 11.229 106.457 11.3987H109.471ZM111.528 9.18053H113.133L114.865 13.726L116.596 9.18053H118.195L115.748 15.1514H113.989L111.528 9.18053Z" fill="#A3A3A3"/>
</g>
<defs>
<clipPath id="clip0_69_2">
<rect width="118" height="20" fill="white" transform="translate(0.666626)"/>
</clipPath>
</defs>
</svg>
