<svg width="51" height="40" viewBox="0 0 51 40" fill="none" xmlns="http://www.w3.org/2000/svg">
<g clip-path="url(#clip0_65_242)">
<path d="M26.467 0.756865C26.467 0.78766 26.4603 0.806137 26.4472 0.812296C25.3794 1.28996 24.4388 1.9524 23.6254 2.79961C22.3807 2.60735 21.2207 2.73833 20.1454 3.19276C19.5283 3.45277 18.9523 3.82991 18.4175 4.32396C17.1596 5.48463 16.4777 6.92645 16.3719 8.64964C16.257 10.524 16.8504 12.3019 18.1949 13.6528C19.6484 15.1138 21.4534 15.6928 23.6097 15.3896C23.8145 15.5751 24.0188 15.7578 24.2229 15.9378C24.5343 16.2116 24.8613 16.4654 25.2039 16.6995C25.2826 16.7535 25.486 16.8712 25.8141 17.0526C26.0174 17.1655 26.2152 17.2951 26.4075 17.4416C24.9678 18.0185 23.4467 18.2536 21.8441 18.1468C19.5353 17.9939 17.5754 17.1419 15.9759 15.5703C14.3713 13.9949 13.494 12.0902 13.3443 9.85577C13.1855 7.47327 13.7465 5.24473 15.2791 3.37342C16.6707 1.67353 18.5564 0.545406 20.7378 0.162522C22.6893 -0.179642 24.599 0.0184729 26.467 0.756865Z" fill="#A3A3A3"/>
<path d="M26.4073 17.4416C26.2151 17.2951 26.0174 17.1655 25.814 17.0526C25.4859 16.8712 25.2825 16.7536 25.2038 16.6995C24.8612 16.4654 24.5342 16.2116 24.2228 15.9378C24.0188 15.7578 23.8144 15.5751 23.6096 15.3896C23.4048 15.1508 23.2032 14.9031 23.0047 14.6465C21.9363 13.2627 21.3303 11.7237 21.1869 10.0293C21.1291 9.35248 21.1357 8.66883 21.2067 7.97831C21.4081 6.00332 22.2142 4.27706 23.6253 2.79962C24.4388 1.9524 25.3793 1.28997 26.447 0.812311C26.4603 0.806152 26.4669 0.787675 26.4669 0.75688C26.5024 0.754827 26.5309 0.749695 26.5526 0.741483C28.1329 0.121476 29.7643 -0.107782 31.4471 0.0537278C32.177 0.12353 32.8582 0.262107 33.4905 0.46946C36.633 1.50109 39.0275 4.22132 39.5332 7.4743C39.9699 10.2869 39.3169 13.0164 37.4103 15.1412C35.72 17.0259 33.4352 18.0719 30.8589 18.1735C29.4026 18.2303 27.9817 17.9898 26.5964 17.4519C26.5282 17.4259 26.4651 17.4224 26.4073 17.4416ZM29.3524 2.78524C29.1354 2.82353 28.9196 2.87363 28.7068 2.93511C27.9326 3.16012 27.2081 3.53736 26.5735 4.04579C26.5497 4.06498 26.5261 4.08407 26.5024 4.10327C26.485 4.11764 26.4672 4.13242 26.4491 4.14741C25.571 4.88844 24.9068 5.86197 24.5287 6.96279C24.1508 8.06361 24.0731 9.24973 24.3043 10.3926C24.5943 11.8259 25.3548 13.114 26.4585 14.0418C26.4703 14.0521 26.4826 14.0621 26.4951 14.0716C26.5125 14.0866 26.5299 14.1011 26.5473 14.1147C27.3625 14.7749 28.3252 15.2156 29.3482 15.3968C30.9144 15.6737 32.5243 15.3259 33.8489 14.4247C34.7856 13.7878 35.5369 12.9025 36.0236 11.8627C36.5102 10.8229 36.7139 9.66731 36.6132 8.51825C36.4671 6.85029 35.69 5.30756 34.4485 4.22132C33.7536 3.61353 32.9369 3.16977 32.0563 2.92167C31.1758 2.67346 30.2526 2.62696 29.3524 2.78524Z" fill="#A3A3A3"/>
<path d="M29.3523 2.78522C30.8532 4.36264 31.6681 6.23939 31.7969 8.41557C31.8569 9.42636 31.7827 10.3909 31.5744 11.3093C31.2228 12.8627 30.4806 14.2253 29.3481 15.3968C28.3252 15.2156 27.3624 14.7748 26.5472 14.1147C26.5299 14.101 26.5124 14.0866 26.495 14.0716C27.78 12.9609 28.5235 11.6141 28.7255 10.0313C29.0257 7.67721 28.2846 5.7012 26.5023 4.10324C26.526 4.08405 26.5497 4.06495 26.5733 4.04576C27.2081 3.53733 27.9325 3.1601 28.7067 2.93509C28.9196 2.8736 29.1353 2.82351 29.3523 2.78522Z" fill="#A3A3A3"/>
<path d="M6.47733 23.4189C4.48296 23.1808 2.88975 24.5204 3.04019 26.5344C3.10147 27.348 3.47479 28.0303 4.16012 28.5812C4.55567 28.898 5.01608 29.0876 5.54126 29.1499C6.56644 29.2716 7.4485 28.961 8.18753 28.2178C8.19453 28.2107 8.20278 28.2052 8.21198 28.2013C8.22117 28.1975 8.23099 28.1954 8.24091 28.1953C8.25084 28.1952 8.26066 28.1971 8.26975 28.2008C8.27884 28.2045 8.28709 28.2099 8.29409 28.2168L9.1121 29.0205C9.12694 29.0353 9.13561 29.055 9.13613 29.0757C9.13676 29.0963 9.12924 29.1162 9.11524 29.1314C8.25502 30.0628 7.18209 30.527 5.89646 30.5244C4.9207 30.5233 3.96789 30.2359 3.19271 29.6518C1.78652 28.5925 1.29551 26.8865 1.6925 25.202C1.83109 24.6148 2.10585 24.08 2.51678 23.5976C3.36787 22.5984 4.48672 22.0783 5.87348 22.0373C7.23015 21.9962 8.35782 22.453 9.25627 23.4076C9.27027 23.4221 9.2779 23.4414 9.27748 23.4614C9.27717 23.4815 9.26871 23.5004 9.25418 23.5144L8.40901 24.3448C8.39981 24.3541 8.38728 24.3594 8.37401 24.3596C8.36064 24.3598 8.34779 24.3549 8.33797 24.3459C7.78845 23.847 7.26086 23.5134 6.47733 23.4189Z" fill="#A3A3A3"/>
<path d="M50.6374 26.2499C50.6435 27.3801 50.1838 28.4666 49.3597 29.2701C48.5357 30.0737 47.4146 30.5285 46.2431 30.5346C45.0717 30.5405 43.9458 30.0973 43.1132 29.3023C42.2805 28.5073 41.8095 27.4256 41.8034 26.2953C41.7973 25.165 42.257 24.0785 43.0811 23.275C43.9052 22.4714 45.0263 22.0167 46.1977 22.0106C47.3691 22.0046 48.495 22.4478 49.3277 23.2428C50.1602 24.0379 50.6314 25.1195 50.6374 26.2499ZM46.2257 29.2576C46.6142 29.257 46.9989 29.1791 47.3575 29.0285C47.7162 28.8778 48.042 28.6574 48.3163 28.3797C48.5905 28.1021 48.8078 27.7727 48.9558 27.4102C49.1039 27.0478 49.1797 26.6595 49.179 26.2675C49.1784 25.8755 49.1012 25.4875 48.9518 25.1255C48.8025 24.7636 48.5839 24.4349 48.3088 24.1583C48.0335 23.8815 47.707 23.6622 47.3477 23.5128C46.9885 23.3633 46.6037 23.2869 46.2151 23.2875C45.8266 23.2882 45.4419 23.366 45.0833 23.5167C44.7246 23.6673 44.3988 23.8878 44.1246 24.1653C43.8503 24.443 43.633 24.7725 43.485 25.1349C43.3369 25.4973 43.2611 25.8857 43.2617 26.2777C43.2625 26.6696 43.3397 27.0577 43.4891 27.4196C43.6383 27.7815 43.8569 28.1102 44.1321 28.3869C44.4074 28.6637 44.7338 28.8829 45.0931 29.0324C45.4523 29.1818 45.8372 29.2583 46.2257 29.2576Z" fill="#A3A3A3"/>
<path d="M12.3267 27.7087V30.3714C12.3267 30.3915 12.3185 30.4109 12.304 30.4251C12.2895 30.4394 12.2698 30.4474 12.2494 30.4474H10.9738C10.959 30.4474 10.9449 30.4416 10.9346 30.4315C10.9241 30.4213 10.9184 30.4074 10.9184 30.393V22.298C10.9184 22.2844 10.9238 22.2713 10.9336 22.2618C10.9435 22.2521 10.9567 22.2467 10.9706 22.2467C12.608 22.2392 13.7558 22.2426 14.414 22.2569C15.1955 22.2744 16.1065 22.4294 16.6434 22.7999C17.4374 23.346 17.6109 24.2155 17.5753 25.1219C17.53 26.3044 16.9512 27.0815 15.839 27.4531C15.8323 27.4553 15.8263 27.459 15.8214 27.464C15.8163 27.4689 15.8127 27.4749 15.8106 27.4815C15.8084 27.4881 15.8079 27.4951 15.809 27.5019C15.8102 27.5088 15.8129 27.5153 15.8171 27.5208L17.917 30.3765C17.9218 30.3832 17.9246 30.3909 17.9252 30.399C17.9257 30.4071 17.9241 30.4152 17.9203 30.4224C17.9165 30.4296 17.9108 30.4357 17.9038 30.4399C17.8967 30.4441 17.8886 30.4463 17.8804 30.4463H16.283C16.2549 30.4463 16.2272 30.4399 16.2024 30.4274C16.1775 30.4148 16.156 30.3968 16.1399 30.3745L14.1946 27.7292C14.1744 27.7019 14.1469 27.6881 14.1121 27.6881H12.3476C12.342 27.6881 12.3367 27.6903 12.3327 27.6942C12.3289 27.698 12.3267 27.7032 12.3267 27.7087ZM12.3204 23.5329L12.3309 26.3989C12.3309 26.4059 12.3337 26.4127 12.3388 26.4177C12.3439 26.4228 12.3508 26.4255 12.358 26.4255L14.7086 26.4173C15.0869 26.4161 15.4493 26.2872 15.7162 26.0589C15.983 25.8306 16.1324 25.5216 16.1315 25.1999L16.1294 24.7072C16.1289 24.5478 16.0916 24.3901 16.0194 24.243C15.9472 24.096 15.8416 23.9626 15.7087 23.8503C15.5759 23.738 15.4182 23.6491 15.2448 23.5886C15.0714 23.5281 14.8856 23.4974 14.6982 23.498L12.3476 23.5062C12.3404 23.5062 12.3335 23.5091 12.3283 23.514C12.3232 23.519 12.3204 23.5258 12.3204 23.5329Z" fill="#A3A3A3"/>
<path d="M22.1407 25.9308C22.1567 25.9308 22.1696 25.9232 22.1793 25.9082C23.0457 24.5019 23.777 23.3066 24.3732 22.3226C24.3869 22.2998 24.4065 22.2808 24.4299 22.2677C24.4534 22.2546 24.4799 22.2477 24.507 22.2477H25.8651C25.8743 22.2478 25.8834 22.2503 25.8912 22.255C25.8992 22.2596 25.9056 22.2663 25.9101 22.2742C25.9145 22.2821 25.9168 22.291 25.9166 22.3C25.9164 22.3091 25.9138 22.3179 25.909 22.3257C25.2362 23.3987 24.2482 24.9802 22.9451 27.0702C22.8838 27.1687 22.8535 27.285 22.8542 27.4192C22.8563 28.4278 22.8566 29.4205 22.8553 30.3971C22.8553 30.4086 22.8507 30.4196 22.8425 30.4279C22.8343 30.4362 22.8231 30.4409 22.8114 30.4412C22.5906 30.4433 22.3671 30.4443 22.1407 30.4443C21.9143 30.4449 21.6911 30.4439 21.471 30.4412C21.4593 30.4409 21.4481 30.4362 21.44 30.4279C21.4317 30.4196 21.4271 30.4086 21.4271 30.3971C21.4258 29.4205 21.4258 28.4278 21.4271 27.4192C21.4279 27.285 21.3976 27.1687 21.3363 27.0702C20.0332 24.9802 19.0449 23.399 18.3713 22.3267C18.3665 22.3189 18.3639 22.3101 18.3637 22.3011C18.3635 22.292 18.3658 22.2831 18.3703 22.2752C18.3747 22.2673 18.3812 22.2606 18.3891 22.256C18.397 22.2514 18.406 22.2488 18.4152 22.2487L19.7734 22.2477C19.8004 22.2477 19.8271 22.2546 19.8505 22.2677C19.874 22.2808 19.8935 22.2998 19.9071 22.3226C20.5039 23.3066 21.236 24.5019 22.1031 25.9082C22.1122 25.9239 22.1247 25.9314 22.1407 25.9308Z" fill="#A3A3A3"/>
<path d="M28.4603 28.0443C28.4523 28.0443 28.4445 28.0476 28.4389 28.0534C28.4332 28.0591 28.43 28.0669 28.43 28.0751V30.3735C28.43 30.3923 28.4223 30.4102 28.4086 30.4236C28.3949 30.4368 28.3762 30.4443 28.3569 30.4443H27.0698C27.0643 30.4443 27.0588 30.4433 27.0538 30.4412C27.0487 30.4391 27.0441 30.4361 27.0402 30.4323C27.0364 30.4285 27.0332 30.424 27.0311 30.4189C27.0291 30.414 27.028 30.4087 27.028 30.4032V22.3052C27.028 22.2737 27.044 22.2577 27.0761 22.2569C28.9697 22.2282 30.2001 22.2395 30.7671 22.2908C31.4294 22.3503 31.9918 22.5252 32.4543 22.8153C33.4363 23.4302 33.662 24.7462 33.4802 25.825C33.2956 26.9213 32.6392 27.6009 31.5109 27.8637C30.508 28.0967 29.5709 28.0454 28.4603 28.0443ZM28.4332 23.5298L28.4269 26.753C28.4269 26.7593 28.4294 26.7652 28.4339 26.7697C28.4384 26.7741 28.4445 26.7766 28.4509 26.7766L30.486 26.7797C30.6953 26.7801 30.9026 26.7442 31.096 26.6739C31.2894 26.6036 31.4653 26.5004 31.6136 26.37C31.7618 26.2398 31.8795 26.085 31.9599 25.9145C32.0404 25.744 32.0819 25.5611 32.0824 25.3765V24.9186C32.0831 24.5457 31.916 24.1877 31.6179 23.9235C31.3196 23.6591 30.9148 23.5101 30.4923 23.5093L28.4572 23.5062C28.4508 23.5062 28.4447 23.5086 28.4402 23.5131C28.4357 23.5175 28.4332 23.5235 28.4332 23.5298Z" fill="#A3A3A3"/>
<path d="M37.661 22.2466C39.6362 22.2466 40.699 22.2477 40.8494 22.2497C40.8556 22.2497 40.8618 22.251 40.8675 22.2532C40.8732 22.2556 40.8784 22.259 40.8828 22.2633C40.8871 22.2676 40.8906 22.2726 40.8929 22.2783C40.8953 22.2838 40.8965 22.2899 40.8965 22.2959V23.4528C40.8965 23.4897 40.8777 23.5082 40.84 23.5082H38.41C38.3794 23.5082 38.3641 23.5233 38.3641 23.5534V30.3817C38.3641 30.3964 38.3583 30.4107 38.348 30.4212C38.3376 30.4318 38.3235 30.4378 38.3087 30.4381C38.0942 30.4436 37.8787 30.4463 37.662 30.4463C37.4447 30.4463 37.2289 30.4436 37.0143 30.4381C36.9996 30.4378 36.9855 30.4318 36.9751 30.4212C36.9648 30.4107 36.9589 30.3964 36.9589 30.3817L36.9579 23.5534C36.9579 23.5233 36.9426 23.5082 36.9119 23.5082H34.4819C34.4443 23.5082 34.4255 23.4897 34.4255 23.4528V22.2959C34.4255 22.2899 34.4267 22.2838 34.4291 22.2783C34.4314 22.2726 34.4349 22.2676 34.4393 22.2633C34.4437 22.259 34.4489 22.2556 34.4545 22.2532C34.4603 22.251 34.4663 22.2497 34.4725 22.2497C34.6229 22.2477 35.6858 22.2466 37.661 22.2466Z" fill="#A3A3A3"/>
<path d="M9.50037 35.6859C9.51448 36.8159 9.06264 37.9052 8.24421 38.7141C7.42588 39.5231 6.30803 39.9856 5.13669 39.9996C3.96526 40.0137 2.83627 39.5782 1.99804 38.7892C1.15981 38.0001 0.680995 36.922 0.666944 35.7919C0.652903 34.6619 1.10475 33.5726 1.92312 32.7636C2.74148 31.9546 3.85931 31.4923 5.03065 31.4782C6.2021 31.4642 7.33112 31.8996 8.1693 32.6887C9.00758 33.4778 9.48637 34.5559 9.50037 35.6859ZM5.08582 38.723C5.47435 38.723 5.85901 38.6458 6.21798 38.4958C6.57694 38.3458 6.9031 38.1261 7.17786 37.8489C7.45262 37.5718 7.67055 37.2429 7.81921 36.8808C7.96788 36.5188 8.04446 36.1307 8.04446 35.7389C8.04446 34.9475 7.73271 34.1885 7.17786 33.6289C6.62301 33.0693 5.8704 32.7549 5.08582 32.7549C4.30109 32.7549 3.54855 33.0693 2.9937 33.6289C2.43885 34.1885 2.12712 34.9475 2.12712 35.7389C2.12712 36.5304 2.43885 37.2894 2.9937 37.8489C3.54855 38.4085 4.30109 38.723 5.08582 38.723Z" fill="#A3A3A3"/>
<path d="M30.0292 36.0048C30.0919 36.8185 30.4663 37.5001 31.1523 38.0496C31.5479 38.3665 32.0083 38.5557 32.5334 38.6173C33.5587 38.7377 34.4404 38.4256 35.1786 37.6811C35.1927 37.6672 35.2117 37.6593 35.2315 37.6591C35.2512 37.6589 35.2703 37.6665 35.2841 37.6801L36.1032 38.4828C36.1183 38.4975 36.127 38.5171 36.1279 38.5377C36.1286 38.5583 36.1213 38.5784 36.1074 38.5936C35.2486 39.5257 34.1764 39.9914 32.8907 39.9907C31.9149 39.9907 30.9622 39.7043 30.187 39.1213C28.7787 38.064 28.2856 36.359 28.6805 34.6745C28.8184 34.0873 29.0925 33.5525 29.5027 33.0701C30.3525 32.0695 31.4703 31.5481 32.8562 31.5057C34.2123 31.4626 35.3402 31.9176 36.2401 32.8709C36.2541 32.8854 36.2618 32.9048 36.2614 32.9247C36.261 32.9447 36.2526 32.9637 36.238 32.9777L35.3938 33.8091C35.3848 33.8185 35.3721 33.8237 35.3588 33.8239C35.3456 33.8241 35.3326 33.8192 35.3228 33.8102C34.7733 33.3123 34.2457 32.9797 33.4622 32.8863C31.4678 32.6502 29.8767 33.9918 30.0292 36.0048Z" fill="#A3A3A3"/>
<path d="M12.5419 37.172L12.5408 39.8337C12.5408 39.8538 12.5327 39.8731 12.5182 39.8874C12.5038 39.9017 12.484 39.9097 12.4635 39.9097L11.189 39.9086C11.1818 39.9086 11.1746 39.9072 11.1678 39.9045C11.1611 39.9018 11.155 39.8978 11.1498 39.8927C11.1447 39.8877 11.1406 39.8816 11.1379 39.8751C11.1351 39.8684 11.1336 39.8614 11.1336 39.8542L11.1367 31.7634C11.1367 31.7497 11.1423 31.7367 11.1521 31.727C11.1618 31.7175 11.1752 31.712 11.189 31.712C12.8257 31.7052 13.9731 31.7093 14.6313 31.7243C15.4128 31.7418 16.3227 31.8968 16.8597 32.2674C17.6526 32.8135 17.8261 33.6829 17.7895 34.5893C17.7443 35.7711 17.1655 36.5476 16.0532 36.9184C16.0465 36.9207 16.0404 36.9244 16.0355 36.9293C16.0306 36.9343 16.027 36.9403 16.0248 36.9469C16.0227 36.9534 16.0222 36.9604 16.0233 36.9673C16.0243 36.9741 16.0272 36.9805 16.0312 36.9862L18.129 39.8409C18.1338 39.8475 18.1367 39.8553 18.1373 39.8634C18.1379 39.8715 18.1362 39.8796 18.1325 39.8868C18.1286 39.894 18.123 39.9 18.1159 39.9042C18.1089 39.9084 18.1007 39.9107 18.0925 39.9107H16.4961C16.468 39.9107 16.4405 39.9042 16.4155 39.8917C16.3906 39.8792 16.3692 39.8611 16.353 39.8388L14.4098 37.1935C14.3897 37.1661 14.3621 37.1525 14.3273 37.1525L12.5628 37.1515C12.5572 37.1515 12.5519 37.1536 12.548 37.1575C12.5441 37.1613 12.5419 37.1665 12.5419 37.172ZM12.5346 33.0147L12.5492 35.856C12.5495 35.8657 12.5536 35.8748 12.5606 35.8815C12.5676 35.8881 12.577 35.8919 12.5868 35.8919L14.952 35.8796C15.1364 35.8787 15.3188 35.8465 15.4889 35.785C15.659 35.7234 15.8133 35.6336 15.9432 35.5208C16.0729 35.4078 16.1756 35.2741 16.2454 35.1272C16.3153 34.9802 16.3507 34.8229 16.3499 34.6642L16.3478 34.1654C16.3458 33.8451 16.1961 33.5389 15.9317 33.3139C15.6672 33.0889 15.3097 32.9635 14.9374 32.9654L12.5722 32.9767C12.5672 32.9767 12.5622 32.9777 12.5576 32.9796C12.553 32.9815 12.5488 32.9843 12.5452 32.9879C12.5417 32.9914 12.539 32.9956 12.5372 33.0002C12.5353 33.0048 12.5345 33.0097 12.5346 33.0147Z" fill="#A3A3A3"/>
<path d="M23.62 31.711C23.7503 31.711 23.964 31.711 24.2615 31.711C24.2948 31.7111 24.3273 31.7205 24.3551 31.7382C24.383 31.7559 24.4048 31.781 24.4182 31.8106L28.0141 39.8316C28.018 39.8404 28.0195 39.8499 28.0187 39.8594C28.018 39.8688 28.0148 39.8779 28.0097 39.8859C28.0045 39.8938 27.9974 39.9003 27.989 39.9048C27.9808 39.9093 27.9714 39.9117 27.9619 39.9117H26.6392C26.6119 39.9118 26.585 39.9039 26.562 39.8891C26.5391 39.8744 26.5209 39.8534 26.5097 39.8286L25.7377 38.1071C25.7288 38.087 25.7141 38.07 25.6956 38.0578C25.677 38.0458 25.6553 38.0395 25.6332 38.0394C24.9687 38.0435 24.2977 38.0455 23.62 38.0455C22.943 38.0455 22.2723 38.0439 21.6079 38.0404C21.5858 38.0404 21.5643 38.0467 21.5457 38.0585C21.5272 38.0704 21.5125 38.0872 21.5034 38.1071L20.7314 39.8296C20.7202 39.8544 20.702 39.8755 20.679 39.8902C20.656 39.9049 20.6292 39.9128 20.6018 39.9127H19.2792C19.2697 39.9127 19.2604 39.9104 19.252 39.9059C19.2437 39.9013 19.2366 39.8949 19.2315 39.887C19.2262 39.879 19.2231 39.8698 19.2224 39.8604C19.2215 39.8509 19.2232 39.8414 19.227 39.8327L22.8218 31.8106C22.8351 31.7812 22.8568 31.7562 22.8845 31.7384C22.9121 31.7208 22.9444 31.7113 22.9775 31.711C23.2756 31.711 23.4897 31.711 23.62 31.711ZM22.125 36.7193C22.1224 36.7249 22.1213 36.7312 22.1217 36.7374C22.1222 36.7436 22.1242 36.7496 22.1276 36.7548C22.1311 36.76 22.1358 36.7643 22.1414 36.7672C22.147 36.7702 22.1532 36.7717 22.1595 36.7716H25.0805C25.0869 36.7717 25.0931 36.7702 25.0987 36.7672C25.1042 36.7643 25.1089 36.76 25.1124 36.7548C25.1158 36.7496 25.1178 36.7436 25.1183 36.7374C25.1188 36.7312 25.1176 36.7249 25.115 36.7193L23.6545 33.4643C23.6516 33.4577 23.6468 33.452 23.6406 33.4481C23.6345 33.4442 23.6273 33.4421 23.62 33.4421C23.6127 33.4421 23.6055 33.4442 23.5994 33.4481C23.5933 33.452 23.5885 33.4577 23.5855 33.4643L22.125 36.7193Z" fill="#A3A3A3"/>
<path d="M43.0653 39.9107H37.9692C37.9531 39.9107 37.9377 39.9044 37.9263 39.8932C37.9149 39.8821 37.9086 39.867 37.9086 39.8511V31.7705C37.9086 31.7547 37.9149 31.7396 37.9263 31.7284C37.9377 31.7173 37.9531 31.711 37.9692 31.711H39.2521C39.2682 31.711 39.2836 31.7173 39.2949 31.7284C39.3063 31.7396 39.3127 31.7547 39.3127 31.7705V38.5424C39.3127 38.5582 39.319 38.5734 39.3304 38.5844C39.3418 38.5956 39.3572 38.6019 39.3733 38.6019H43.0653C43.0814 38.6019 43.0968 38.6082 43.1081 38.6193C43.1195 38.6305 43.1259 38.6456 43.1259 38.6614V39.8511C43.1259 39.867 43.1195 39.8821 43.1081 39.8932C43.0968 39.9044 43.0814 39.9107 43.0653 39.9107Z" fill="#A3A3A3"/>
<path d="M50.6667 38.6676V39.8542C50.6667 39.8694 50.6605 39.8841 50.6496 39.8949C50.6386 39.9057 50.6238 39.9117 50.6082 39.9117H44.7149C44.6995 39.9117 44.6845 39.9057 44.6736 39.8949C44.6626 39.8841 44.6564 39.8694 44.6564 39.8542V31.7695C44.6564 31.7542 44.6626 31.7396 44.6736 31.7289C44.6845 31.7181 44.6995 31.712 44.7149 31.712H50.4619C50.4775 31.712 50.4923 31.7181 50.5033 31.7289C50.5143 31.7396 50.5204 31.7542 50.5204 31.7695V32.9521C50.5204 32.9672 50.5143 32.9819 50.5033 32.9927C50.4923 33.0035 50.4775 33.0095 50.4619 33.0095H46.1264C46.1109 33.0095 46.096 33.0156 46.085 33.0264C46.074 33.0371 46.0678 33.0517 46.0678 33.067V35.1313C46.0678 35.1465 46.074 35.1612 46.085 35.172C46.096 35.1827 46.1109 35.1888 46.1264 35.1888H50.0023C50.0178 35.1888 50.0327 35.1948 50.0436 35.2056C50.0546 35.2164 50.0608 35.231 50.0608 35.2463V36.3559C50.0608 36.3712 50.0546 36.3858 50.0436 36.3966C50.0327 36.4074 50.0178 36.4134 50.0023 36.4134H46.1253C46.1098 36.4134 46.0949 36.4195 46.0839 36.4302C46.073 36.441 46.0668 36.4556 46.0668 36.4709V38.5526C46.0668 38.5678 46.073 38.5825 46.0839 38.5933C46.0949 38.6041 46.1098 38.6101 46.1253 38.6101H50.6082C50.6238 38.6101 50.6386 38.6162 50.6496 38.627C50.6605 38.6377 50.6667 38.6523 50.6667 38.6676Z" fill="#A3A3A3"/>
</g>
<defs>
<clipPath id="clip0_65_242">
<rect width="50" height="40" fill="white" transform="translate(0.666626)"/>
</clipPath>
</defs>
</svg>
