<svg width="126" height="32" viewBox="0 0 126 32" fill="none" xmlns="http://www.w3.org/2000/svg">
<g clip-path="url(#clip0_65_231)">
<path d="M27.2026 16.5246C27.2144 18.1088 27.1968 19.6611 27.2451 21.2113C27.3112 23.3346 26.3667 24.8339 24.5696 25.8766C22.51 27.0715 20.4631 28.2888 18.4201 29.5122C17.6366 29.9814 16.8893 30.5116 16.1057 30.9807C15.6511 31.2529 15.1682 31.4859 14.6786 31.6895C13.6118 32.133 12.6062 31.9494 11.6314 31.3646C9.00305 29.7878 6.36526 28.2267 3.72924 26.6628C3.43971 26.491 3.13856 26.3387 2.84086 26.1811C0.965653 25.1882 0.0606655 23.5688 0.026651 21.4997C-0.0160754 18.9006 0.0570769 16.2996 0.0724368 13.6994C0.0794057 12.5196 0.0539623 11.3396 0.0708301 10.16C0.0779863 9.65967 0.142222 9.15855 0.205545 8.66098C0.280011 8.07586 0.544279 7.55836 0.986552 7.18847C1.69379 6.59698 2.40674 5.99306 3.19139 5.51771C5.85082 3.90661 8.55396 2.36835 11.2181 0.764915C12.8076 -0.191776 14.3635 -0.166478 15.9326 0.755259C17.5263 1.69146 19.11 2.64494 20.7007 3.58632C21.992 4.35053 23.2708 5.13825 24.5848 5.86119C26.3968 6.85811 27.1948 8.38739 27.1768 10.4282C27.1589 12.4492 27.1919 14.4706 27.2026 16.5246ZM18.0819 7.39018C16.7078 6.5955 15.3324 5.80295 13.9611 5.00332C13.7983 4.90841 13.6761 4.87925 13.4929 4.98478C10.902 6.47683 8.30721 7.96196 5.70643 9.43645C5.47509 9.5676 5.40316 9.71316 5.4037 9.9693C5.41187 13.7936 5.41241 17.618 5.40608 21.4424C5.40573 21.6565 5.47015 21.7674 5.65579 21.8737C8.27917 23.375 10.8986 24.8832 13.514 26.3984C13.7104 26.5122 13.8503 26.5041 14.0432 26.393C16.6343 24.9012 19.2289 23.4153 21.829 21.9394C22.0328 21.8237 22.0855 21.694 22.0838 21.4781C22.0744 20.2871 22.0773 19.0959 22.076 17.9048C22.0759 17.7372 22.076 17.5695 22.076 17.3705C21.9372 17.4446 21.8423 17.4937 21.7488 17.5453C19.1507 18.979 16.5537 20.4147 13.9516 21.841C13.8402 21.902 13.6489 21.9374 13.5507 21.883C12.1242 21.0931 10.7065 20.2869 9.28974 19.4793C9.21431 19.4363 9.11394 19.3487 9.11181 19.2791C9.0965 18.7799 9.10362 18.2801 9.10362 17.7438C12.1043 17.7438 15.0684 17.7438 18.0238 17.7438C18.0238 16.4024 18.0238 15.0985 18.0238 13.7685C15.0412 13.7685 12.0855 13.7685 9.10193 13.7685C9.10193 13.2418 9.11571 12.7408 9.09565 12.2412C9.08671 12.0186 9.17569 11.9113 9.35464 11.8101C10.7457 11.0232 12.1353 10.2335 13.5166 9.42963C13.7179 9.31247 13.8547 9.33127 14.0418 9.44227C16.3145 10.7903 18.5914 12.1313 20.8682 13.4724C21.2578 13.7018 21.6519 13.9235 22.0778 14.1683C22.0778 12.69 22.0819 11.2606 22.0684 9.83143C22.0675 9.73868 21.9505 9.61495 21.856 9.56001C20.6156 8.83818 19.3696 8.12615 18.0819 7.39018Z" fill="#A3A3A3"/>
<path d="M58.7219 22.6154C58.7219 22.7424 58.7219 22.8374 58.7219 22.9408C58.0709 22.9408 57.4535 22.9408 56.8051 22.9408C56.8051 22.8162 56.8051 22.6984 56.8051 22.5805C56.8052 20.3846 56.8103 18.1885 56.8007 15.9926C56.799 15.58 56.7666 15.1631 56.7003 14.7561C56.4625 13.2981 55.4174 12.8466 54.1826 13.0224C52.9932 13.1918 52.2209 14.0658 52.0072 15.4267C51.9331 15.8986 51.8939 16.3806 51.8907 16.8583C51.8778 18.7592 51.8854 20.6603 51.8854 22.5613C51.8854 22.6802 51.8854 22.7991 51.8854 22.9345C51.2394 22.9345 50.615 22.9345 49.9563 22.9345C49.9563 19.1403 49.9563 15.3558 49.9563 11.5523C50.5519 11.5523 51.1565 11.5523 51.8184 11.5523C51.8474 12.0688 51.8769 12.5941 51.9121 13.2195C52.6867 11.9101 53.7717 11.2646 55.2157 11.2799C56.6561 11.295 57.7561 11.8699 58.3394 13.2175C58.6629 12.8646 58.9475 12.4486 59.3276 12.1588C60.6717 11.1342 62.1557 10.9823 63.6875 11.6669C64.7509 12.1421 65.2407 13.0864 65.4471 14.1864C65.5249 14.6016 65.5555 15.0312 65.5573 15.4544C65.5674 17.8251 65.5622 20.196 65.5622 22.5667C65.5622 22.6843 65.5622 22.8018 65.5622 22.935C64.9166 22.935 64.3 22.935 63.6384 22.935C63.6384 22.8223 63.6384 22.7068 63.6384 22.5913C63.6383 20.3625 63.6419 18.1337 63.6343 15.905C63.6331 15.5467 63.6107 15.1834 63.5488 14.8312C63.3142 13.4958 62.2917 12.7853 60.9628 13.0129C59.722 13.2254 58.9709 14.0602 58.7975 15.4433C58.7502 15.8213 58.7265 16.2045 58.7251 16.5855C58.7182 18.5848 58.7219 20.5841 58.7219 22.6154Z" fill="#A3A3A3"/>
<path d="M44.4168 9.05661C42.6761 9.05661 40.9681 9.05661 39.2362 9.05661C39.2362 10.6596 39.2362 12.2477 39.2362 13.8648C41.8032 13.8648 44.3662 13.8648 46.9504 13.8648C46.9504 14.4557 46.9504 15.0183 46.9504 15.6119C44.3942 15.6119 41.8324 15.6119 39.2415 15.6119C39.2415 17.4696 39.2415 19.2969 39.2415 21.1625C42.0658 21.1625 44.8984 21.1625 47.7472 21.1625C47.6545 21.7722 47.5678 22.3422 47.4782 22.9315C44.07 22.9315 40.6591 22.9315 37.2294 22.9315C37.2294 17.7246 37.2294 12.5197 37.2294 7.29675C40.595 7.29675 43.9627 7.29675 47.347 7.29675C47.347 7.87446 47.347 8.44734 47.347 9.05661C46.3784 9.05661 45.414 9.05661 44.4168 9.05661Z" fill="#A3A3A3"/>
<path d="M73.8026 11.3313C75.7314 11.0295 77.4927 11.8442 78.3307 13.6114C79.5425 16.1669 79.4454 18.7556 77.9728 21.1775C76.6869 23.2924 74.1745 23.5964 72.3636 22.8941C71.7667 22.6626 71.4574 22.3886 70.8442 21.6082C70.8442 23.5676 70.8442 25.4756 70.8442 27.4003C70.1866 27.4003 69.5698 27.4003 68.9089 27.4003C68.9089 22.1298 68.9089 16.8501 68.9089 11.5518C69.502 11.5518 70.1184 11.5518 70.7986 11.5518C70.7986 12.0955 70.7986 12.6432 70.7986 13.1908C70.8277 13.2024 70.8567 13.2139 70.8857 13.2254C71.5562 12.1329 72.511 11.4905 73.8026 11.3313ZM71.334 14.3404C71.2135 14.6428 71.0544 14.9359 70.9791 15.2492C70.6396 16.6623 70.65 18.0808 71.0258 19.4848C71.2108 20.1763 71.5672 20.7779 72.214 21.1392C73.491 21.8524 75.7711 21.8356 76.6158 19.6742C77.1978 18.1853 77.2574 16.6499 76.7907 15.1235C76.4421 13.9837 75.7181 13.1501 74.4766 13.0067C73.2271 12.8624 72.0897 13.1202 71.334 14.3404Z" fill="#A3A3A3"/>
<path d="M120.717 21.8135C120.752 22.2025 120.786 22.5607 120.821 22.9346C120.213 22.9346 119.597 22.9346 118.917 22.9346C118.867 22.4992 118.815 22.0519 118.762 21.6031C118.744 21.6031 118.712 21.5953 118.707 21.6042C117.98 22.7487 116.862 23.1355 115.593 23.2103C114.893 23.2516 114.201 23.1828 113.541 22.9254C111.956 22.3073 111.224 20.8196 111.46 19.1188C111.68 17.5375 112.738 16.7404 114.167 16.3298C115.095 16.0633 116.049 16.0085 117.009 16.017C117.573 16.0221 118.138 16.018 118.802 16.018C118.731 15.3557 118.722 14.7092 118.577 14.0956C118.423 13.448 117.908 13.057 117.269 12.9603C116.698 12.8739 116.101 12.8598 115.526 12.9167C114.662 13.0022 114.143 13.552 113.942 14.385C113.888 14.608 113.795 14.6545 113.59 14.6496C113.058 14.6368 112.525 14.6453 111.994 14.6453C111.919 13.5424 112.78 12.2505 113.927 11.7336C114.938 11.2778 116.006 11.2196 117.089 11.3072C117.466 11.3377 117.847 11.3977 118.211 11.4972C119.799 11.9303 120.649 13.0688 120.664 14.7731C120.674 15.9746 120.659 17.1764 120.668 18.3779C120.676 19.5129 120.7 20.6477 120.717 21.8135ZM115.526 21.6522C115.753 21.6454 115.983 21.654 116.209 21.6292C117.147 21.526 117.93 21.1589 118.349 20.2512C118.767 19.3452 118.766 18.3775 118.742 17.4186C117.888 17.4186 117.063 17.3939 116.241 17.4286C115.801 17.4472 115.355 17.5313 114.93 17.6514C114.249 17.8441 113.725 18.242 113.526 18.9709C113.139 20.3936 113.997 21.5758 115.526 21.6522Z" fill="#A3A3A3"/>
<path d="M101.939 12.0386C103.626 11.0667 105.35 10.9947 107.075 11.806C108.403 12.4308 109.063 13.6109 109.404 14.9912C109.612 15.835 109.617 16.6933 109.566 17.5785C106.888 17.5785 104.235 17.5785 101.587 17.5785C101.373 19.0714 102.287 20.8293 103.533 21.3513C105.004 21.9672 106.583 21.3965 107.308 19.9933C107.35 19.9123 107.447 19.8061 107.521 19.8043C108.129 19.789 108.737 19.7957 109.383 19.7957C109.079 20.8191 108.554 21.6547 107.726 22.2734C105.002 24.3091 101.087 23.1376 99.9847 19.9203C99.2855 17.8791 99.3908 15.8387 100.323 13.8731C100.68 13.1204 101.216 12.5079 101.939 12.0386ZM101.817 15.1052C101.743 15.462 101.669 15.8187 101.592 16.1934C103.624 16.1934 105.597 16.1934 107.59 16.1934C107.55 15.0509 107.293 14.0192 106.333 13.3254C104.688 12.1379 102.442 13.0111 101.817 15.1052Z" fill="#A3A3A3"/>
<path d="M85.8667 25.0863C85.6949 25.4176 85.5458 25.7332 85.3742 26.0359C84.7505 27.1362 83.7724 27.6238 82.542 27.6522C82.0127 27.6644 81.4829 27.6543 80.938 27.6543C80.938 27.0334 80.938 26.4805 80.938 25.9009C81.357 25.9009 81.7758 25.9139 82.1935 25.8979C82.8158 25.874 83.3568 25.6335 83.6828 25.0955C83.9853 24.5964 84.2131 24.0502 84.4503 23.5143C84.4935 23.4166 84.445 23.261 84.4035 23.145C83.0607 19.3946 81.7136 15.6457 80.3675 11.8965C80.3312 11.7953 80.2992 11.6925 80.2488 11.5414C80.9461 11.5414 81.6137 11.5309 82.2799 11.5558C82.3557 11.5586 82.4514 11.7503 82.4918 11.8701C83.1318 13.7681 83.7682 15.6674 84.397 17.5692C84.785 18.7429 85.1589 19.9213 85.543 21.1094C86.5522 17.9155 87.558 14.7322 88.5639 11.549C89.2309 11.549 89.8719 11.549 90.5598 11.549C90.4191 11.9646 90.2865 12.3614 90.1506 12.757C88.8247 16.6175 87.4989 20.478 86.1702 24.3376C86.0853 24.5842 85.9766 24.8225 85.8667 25.0863Z" fill="#A3A3A3"/>
<path d="M124.033 10.3607C124.033 9.0406 124.033 7.75328 124.033 6.44611C124.683 6.44611 125.32 6.44611 125.978 6.44611C125.978 11.932 125.978 17.4272 125.978 22.9366C125.338 22.9366 124.702 22.9366 124.033 22.9366C124.033 18.7498 124.033 14.5716 124.033 10.3607Z" fill="#A3A3A3"/>
<path d="M94.6482 16.4664C94.6249 16.8653 94.5861 17.2354 94.5847 17.6055C94.5782 19.374 94.5818 21.1425 94.5818 22.9309C93.9318 22.9309 93.2955 22.9309 92.6168 22.9309C92.6168 19.1551 92.6168 15.3719 92.6168 11.5647C93.2233 11.5647 93.8571 11.5647 94.5474 11.5647C94.5474 12.2785 94.5474 12.9913 94.5474 13.7041C94.9573 12.9806 95.4312 12.3619 96.1195 11.9273C96.8062 11.4937 97.5591 11.3038 98.3784 11.2746C98.3784 11.9395 98.3784 12.5702 98.3784 13.2322C96.3084 13.3153 94.9626 14.2761 94.6482 16.4664Z" fill="#A3A3A3"/>
</g>
<defs>
<clipPath id="clip0_65_231">
<rect width="126" height="32" fill="white"/>
</clipPath>
</defs>
</svg>
