<svg width="60" height="30" viewBox="0 0 60 30" fill="none" xmlns="http://www.w3.org/2000/svg">
<g clip-path="url(#clip0_46_4)">
<path d="M30 0H0V30H30V0Z" fill="white"/>
<path d="M15.1794 26.25C12.5888 26.25 10.5362 25.5083 9.02174 24.0248C7.50725 22.5206 6.75 20.3778 6.75 17.5962V12.4038C6.75 9.62226 7.50725 7.48969 9.02174 6.00618C10.5362 4.50205 12.5888 3.75 15.1794 3.75C17.75 3.75 19.7328 4.48146 21.1277 5.94436C22.5426 7.38667 23.25 9.375 23.25 11.9093V12.0948H19.3641V11.7857C19.3641 10.5082 19.0153 9.45741 18.318 8.63323C17.6404 7.80906 16.5942 7.39698 15.1794 7.39698C13.7844 7.39698 12.6884 7.83997 11.8913 8.72596C11.0942 9.61195 10.6956 10.8173 10.6956 12.342V17.658C10.6956 19.1621 11.0942 20.3675 11.8913 21.2741C12.6884 22.1601 13.7844 22.603 15.1794 22.603C16.5942 22.603 17.6404 22.191 18.318 21.3668C19.0153 20.522 19.3641 19.4712 19.3641 18.2144V17.658H23.25V18.0906C23.25 20.625 22.5426 22.6236 21.1277 24.0865C19.7328 25.5288 17.75 26.25 15.1794 26.25Z" fill="black"/>
<path d="M59.25 0.75H30.75V29.25H59.25V0.75Z" fill="black"/>
<path d="M59.25 0.75H30.75V29.25H59.25V0.75Z" stroke="white" stroke-width="2"/>
<path d="M45.0927 26.25C43.4653 26.25 42.0234 25.9559 40.7669 25.3677C39.5103 24.7794 38.5215 23.9391 37.8006 22.8467C37.1002 21.7332 36.75 20.4201 36.75 18.9075V18.3404H40.705V18.7815C40.705 19.9579 41.1067 20.9034 41.9101 21.6177C42.7135 22.3109 43.7744 22.6575 45.0927 22.6575C46.4316 22.6575 47.4617 22.332 48.1826 21.6807C48.9242 21.0294 49.295 20.2101 49.295 19.2226V18.9075C49.295 18.2353 49.1301 17.689 48.8005 17.2689C48.471 16.8487 48.028 16.5441 47.4718 16.3551C46.9158 16.145 46.2874 16.04 45.5871 16.04H41.2612V11.6281L48.2443 7.84664V7.34244H37.3062V3.75H52.632V9.10715L46.1124 12.6366V13.1407H47.2556C48.2238 13.1407 49.161 13.3403 50.0674 13.7395C50.9944 14.1387 51.7566 14.7584 52.3539 15.5988C52.9513 16.4181 53.25 17.4895 53.25 18.813V19.1911C53.25 20.6197 52.9101 21.8697 52.2303 22.9411C51.5505 23.9916 50.5927 24.8109 49.3567 25.3992C48.1414 25.9664 46.7201 26.25 45.0927 26.25Z" fill="white"/>
</g>
<defs>
<clipPath id="clip0_46_4">
<rect width="60" height="30" fill="white"/>
</clipPath>
</defs>
</svg>
