<svg width="113" height="28" viewBox="0 0 113 28" fill="none" xmlns="http://www.w3.org/2000/svg">
<g clip-path="url(#clip0_65_227)">
<path fill-rule="evenodd" clip-rule="evenodd" d="M0.333374 13.9999C0.333374 10.287 1.81677 6.78076 4.51133 4.12622C7.20587 1.47168 10.765 0.0103149 14.5339 0.0103149H15.1979V4.86148L8.77957 11.0183V16.9828L15.1979 23.1397V27.9897H14.5339C10.765 27.9897 7.20587 26.5282 4.51133 23.8736C1.81677 21.2191 0.333374 17.7129 0.333374 13.9999ZM28.4077 11L28.4119 11.0196V11.0209C28.627 11.9969 28.7359 13.0004 28.7359 14.0012C28.7359 15.0021 28.627 16.0055 28.4119 16.9815L28.4077 17.0011C27.874 19.1127 26.9324 20.8462 26.2366 21.9282L26.2219 21.9504C25.9165 22.3874 25.5818 22.81 25.2286 23.2077L24.7678 23.7271L18.0825 17.3125V10.6886L24.7678 4.27403L25.2286 4.79342C25.5805 5.19113 25.9152 5.61371 26.2219 6.0507L26.2366 6.07294C26.9324 7.1549 27.874 8.88838 28.4077 11Z" fill="#A3A3A3"/>
<path fill-rule="evenodd" clip-rule="evenodd" d="M46.5722 8.58977C48.5818 8.58977 50.5366 9.97514 50.9436 11.7605H55.6414C55.0716 7.4179 51.2975 4.27325 46.4633 4.27325C40.8698 4.27325 36.6612 8.37725 36.6612 13.9999C36.6612 19.6226 40.8698 23.7266 46.4633 23.7266C51.1339 23.7266 54.8815 20.7153 55.5867 16.6384H50.7533C50.2912 18.2112 48.4453 19.4101 46.5711 19.4101C43.6925 19.4101 41.5474 17.2248 41.5474 14.0009C41.5474 10.7771 43.6925 8.59177 46.5711 8.59177L46.5722 8.58977ZM66.7572 4.27325C61.0547 4.27325 56.8462 8.37725 56.8462 13.9999C56.8462 19.6226 61.0547 23.7266 66.7572 23.7266C72.4596 23.7266 76.6682 19.6497 76.6682 13.9999C76.6682 8.35019 72.4596 4.27325 66.7572 4.27325ZM66.7572 19.4091C63.8786 19.4091 61.7335 17.2238 61.7335 13.9999C61.7335 10.7761 63.8786 8.59077 66.7572 8.59077C69.6358 8.59077 71.7809 10.7761 71.7809 13.9999C71.7809 17.2238 69.6358 19.4091 66.7572 19.4091ZM87.3107 4.59304C91.7096 4.59304 94.5335 7.52417 94.5335 11.0949V11.0959C94.5335 13.3904 93.3969 15.4274 91.4177 16.5923L94.1192 19.1836V23.4068H89.4893V21.1082L85.8578 17.6238H82.8742V23.4068H78.2036V4.59304H82.8742H87.3107ZM82.8734 13.7333H84.8667H86.5498C88.369 13.7333 89.6451 12.8531 89.6451 11.0949C89.6451 9.3366 88.3415 8.48351 86.5222 8.48351H82.8734V13.7333ZM112.333 8.81732V4.59304H107.703V6.89264L103.388 11.0327V16.9682L107.703 21.1082V23.4068H112.333V19.1826L108.018 15.0435V12.9574L112.333 8.81732ZM101.088 23.4068H96.4178V4.59304H101.088V11.8948V12.0331V15.9667V17.6769V23.4068Z" fill="#A3A3A3"/>
</g>
<defs>
<clipPath id="clip0_65_227">
<rect width="112" height="28" fill="white" transform="translate(0.333344)"/>
</clipPath>
</defs>
</svg>
