<?xml version="1.0" encoding="UTF-8"?>
<svg xmlns="http://www.w3.org/2000/svg" xmlns:xlink="http://www.w3.org/1999/xlink" width="63px" height="30px" viewBox="0 0 63 30" version="1.1">
<g id="surface1">
<path style=" stroke:none;fill-rule:nonzero;fill:#A3A3A3;fill-opacity:1;" d="M 30.070312 12.847656 C 30.019531 13.574219 29.90625 13.941406 29.246094 14.207031 L 29.296875 14.617188 C 29.9375 14.566406 30.386719 14.566406 31.191406 14.566406 C 33.308594 14.566406 34.8125 14.585938 36.015625 14.648438 C 36.199219 13.789062 36.332031 12.972656 36.414062 11.984375 L 35.964844 11.902344 C 35.753906 12.511719 35.589844 12.859375 35.386719 13.175781 C 35.140625 13.523438 34.875 13.757812 34.296875 13.839844 C 33.851562 13.910156 33.289062 13.921875 32.546875 13.921875 C 31.800781 13.921875 31.519531 13.777344 31.488281 12.960938 C 31.46875 12.632812 31.4375 11.738281 31.4375 11.15625 L 31.4375 8.917969 C 31.984375 8.917969 33.15625 8.9375 33.6875 9 C 34.429688 9.101562 34.664062 9.347656 34.910156 10.113281 L 35.304688 10.03125 C 35.253906 9.386719 35.253906 9 35.253906 8.589844 C 35.253906 8.179688 35.253906 7.8125 35.304688 7.171875 L 34.910156 7.089844 C 34.664062 7.851562 34.429688 8.117188 33.6875 8.199219 C 33.15625 8.25 32.003906 8.28125 31.4375 8.28125 L 31.4375 6.164062 C 31.4375 5.570312 31.4375 4.972656 31.488281 4.460938 C 31.539062 3.796875 31.632812 3.664062 32.414062 3.664062 C 33.195312 3.664062 33.421875 3.683594 33.835938 3.746094 C 34.152344 3.796875 34.53125 3.929688 34.78125 4.195312 C 35.027344 4.460938 35.210938 4.808594 35.425781 5.421875 L 35.902344 5.339844 C 35.851562 4.429688 35.789062 3.816406 35.671875 2.96875 C 35.027344 3.019531 34.511719 3.019531 33.835938 3.019531 L 30.792969 3.019531 C 30.378906 3.019531 29.9375 3.019531 29.289062 2.96875 L 29.238281 3.386719 C 29.898438 3.652344 30.011719 4.019531 30.0625 4.746094 C 30.113281 5.289062 30.113281 6.019531 30.113281 6.601562 L 30.113281 11.003906 C 30.113281 11.585938 30.113281 12.3125 30.0625 12.859375 Z M 30.070312 12.847656 "/>
<path style=" stroke:none;fill-rule:nonzero;fill:#A3A3A3;fill-opacity:1;" d="M 38.390625 9.445312 L 37.402344 12.191406 C 37.007812 13.265625 36.894531 13.632812 36.894531 14.011719 C 36.894531 14.390625 37.21875 14.769531 37.605469 14.769531 C 38.183594 14.769531 38.945312 14.308594 39.824219 12.601562 L 39.496094 12.367188 C 38.683594 13.523438 38.355469 13.707031 38.171875 13.707031 C 37.988281 13.707031 38.007812 13.625 38.007812 13.542969 C 38.007812 13.460938 38.039062 13.347656 38.222656 12.847656 L 39.300781 9.804688 C 39.546875 9.121094 39.808594 8.394531 39.808594 7.863281 C 39.808594 7.335938 39.496094 7.054688 39.148438 7.054688 C 38.601562 7.054688 37.925781 7.6875 36.980469 9.058594 L 37.296875 9.34375 C 38.058594 8.445312 38.386719 8.1875 38.550781 8.1875 C 38.714844 8.1875 38.683594 8.238281 38.683594 8.339844 C 38.683594 8.503906 38.632812 8.820312 38.398438 9.449219 Z M 38.390625 9.445312 "/>
<path style=" stroke:none;fill-rule:nonzero;fill:#A3A3A3;fill-opacity:1;" d="M 39.664062 4.265625 C 40.164062 4.265625 40.539062 3.886719 40.539062 3.386719 C 40.539062 2.886719 40.164062 2.507812 39.664062 2.507812 C 39.167969 2.507812 38.789062 2.886719 38.789062 3.386719 C 38.789062 3.886719 39.167969 4.265625 39.664062 4.265625 Z M 39.664062 4.265625 "/>
<path style=" stroke:none;fill-rule:nonzero;fill:#A3A3A3;fill-opacity:1;" d="M 46.941406 12.210938 C 46.941406 10.964844 46.167969 10.011719 44.558594 9.960938 L 42.5625 9.890625 C 41.820312 9.859375 41.441406 9.542969 41.441406 9.066406 C 41.441406 8.585938 41.554688 8.308594 42.070312 7.910156 C 42.550781 8.308594 43.097656 8.523438 43.839844 8.523438 C 45.296875 8.523438 46.488281 7.367188 46.488281 5.742188 C 46.488281 4.121094 46.34375 4.566406 45.941406 4.121094 L 47.488281 4.121094 L 47.621094 3.507812 L 47.488281 3.222656 C 46.910156 3.273438 46.332031 3.292969 45.921875 3.292969 C 44.976562 3.292969 44.730469 2.964844 43.773438 2.964844 C 42.316406 2.964844 41.074219 4.1875 41.074219 5.742188 C 41.074219 7.296875 41.257812 6.988281 41.636719 7.5 C 40.792969 8.144531 40.496094 8.804688 40.496094 9.449219 C 40.496094 10.09375 40.976562 10.777344 41.6875 11.023438 C 40.742188 11.667969 40.363281 12.28125 40.363281 13.054688 C 40.363281 14.179688 41.308594 15.007812 43.175781 15.007812 C 45.039062 15.007812 46.941406 13.699219 46.941406 12.210938 Z M 43.742188 3.621094 C 44.648438 3.621094 45.226562 4.449219 45.226562 5.820312 C 45.226562 7.1875 44.699219 7.851562 43.835938 7.851562 C 42.972656 7.851562 42.347656 7.089844 42.347656 5.636719 C 42.347656 4.246094 42.929688 3.613281 43.742188 3.613281 Z M 43.4375 14.085938 C 42.050781 14.085938 41.441406 13.492188 41.441406 12.777344 C 41.441406 12.066406 41.675781 11.71875 42.253906 11.175781 C 42.933594 11.226562 43.527344 11.226562 44.269531 11.226562 C 45.511719 11.226562 46.039062 11.722656 46.039062 12.5 C 46.039062 13.277344 45.347656 14.085938 43.445312 14.085938 Z M 43.4375 14.085938 "/>
<path style=" stroke:none;fill-rule:nonzero;fill:#A3A3A3;fill-opacity:1;" d="M 50.625 15.015625 C 52.09375 15.015625 53.070312 13.984375 53.570312 12.746094 L 53.171875 12.5 C 52.492188 13.472656 51.847656 13.839844 50.789062 13.839844 C 49.730469 13.839844 48.441406 12.683594 48.441406 10.980469 C 48.441406 9.273438 48.441406 10.550781 48.472656 10.347656 L 53.5625 10.347656 C 53.59375 10.214844 53.59375 10.101562 53.59375 9.96875 C 53.59375 8.375 52.382812 7.203125 50.796875 7.203125 C 48.75 7.203125 47.175781 8.9375 47.175781 11.238281 C 47.175781 13.535156 48.546875 15.007812 50.613281 15.007812 Z M 50.445312 7.945312 C 51.371094 7.945312 52.132812 8.558594 52.144531 9.683594 L 48.59375 9.683594 C 48.792969 8.703125 49.4375 7.945312 50.445312 7.945312 Z M 50.445312 7.945312 "/>
<path style=" stroke:none;fill-rule:nonzero;fill:#A3A3A3;fill-opacity:1;" d="M 56.8125 9.953125 C 56.203125 9.707031 56.101562 9.441406 56.050781 8.761719 C 56.019531 8.25 56.019531 7.667969 56.019531 7.15625 L 56.019531 5.683594 C 56.019531 4.625 56.730469 3.847656 57.871094 3.847656 C 59.011719 3.847656 59.308594 4.476562 59.308594 5.398438 L 59.308594 7.15625 C 59.308594 7.667969 59.308594 8.25 59.257812 8.761719 C 59.207031 9.441406 59.125 9.699219 58.515625 9.953125 L 58.566406 10.332031 C 59.144531 10.28125 59.511719 10.28125 59.886719 10.28125 C 60.265625 10.28125 60.632812 10.28125 61.210938 10.332031 L 61.261719 9.953125 C 60.648438 9.707031 60.550781 9.441406 60.5 8.761719 C 60.46875 8.25 60.46875 7.667969 60.46875 7.15625 L 60.46875 5.253906 C 60.46875 4.589844 60.335938 4.179688 60.121094 3.796875 C 59.722656 3.152344 59.042969 2.765625 58.238281 2.765625 C 57.429688 2.765625 56.46875 3.429688 56.019531 4.269531 L 56 4.25 C 56.019531 3.832031 56.050781 3.390625 56.101562 2.859375 L 55.753906 2.726562 C 55.175781 3.257812 54.765625 3.523438 54.003906 3.882812 L 54.003906 4.230469 C 54.601562 4.34375 54.765625 4.496094 54.816406 5.171875 C 54.867188 5.683594 54.867188 6.214844 54.867188 6.726562 L 54.867188 7.144531 C 54.867188 7.65625 54.867188 8.234375 54.816406 8.746094 C 54.765625 9.429688 54.683594 9.6875 54.074219 9.941406 L 54.125 10.320312 C 54.703125 10.269531 55.070312 10.269531 55.445312 10.269531 C 55.824219 10.269531 56.191406 10.269531 56.769531 10.320312 L 56.820312 9.941406 Z M 56.8125 9.953125 "/>
<path style=" stroke:none;fill-rule:nonzero;fill:#A3A3A3;fill-opacity:1;" d="M 35.386719 25.738281 C 35.140625 26.117188 34.828125 26.382812 34.226562 26.496094 C 33.75 26.578125 33.28125 26.578125 32.539062 26.578125 C 31.796875 26.578125 31.5625 26.429688 31.480469 25.617188 C 31.449219 25.289062 31.429688 24.390625 31.429688 23.808594 L 31.429688 19.246094 C 31.429688 18.664062 31.429688 17.9375 31.480469 17.386719 C 31.53125 16.660156 31.644531 16.292969 32.304688 16.03125 L 32.257812 15.613281 C 31.613281 15.664062 31.167969 15.664062 30.75 15.664062 C 30.335938 15.664062 29.925781 15.664062 29.277344 15.613281 L 29.226562 16.03125 C 29.886719 16.292969 30 16.660156 30.050781 17.386719 C 30.101562 17.929688 30.101562 18.664062 30.101562 19.246094 L 30.101562 23.644531 C 30.101562 24.226562 30.101562 24.953125 30.050781 25.503906 C 30 26.230469 29.886719 26.597656 29.226562 26.859375 L 29.277344 27.277344 C 29.917969 27.226562 30.367188 27.226562 31.179688 27.226562 C 33.296875 27.226562 34.75 27.246094 36.054688 27.308594 C 36.238281 26.382812 36.382812 25.542969 36.46875 24.480469 L 35.992188 24.398438 C 35.777344 25.042969 35.59375 25.421875 35.382812 25.738281 Z M 35.386719 25.738281 "/>
<path style=" stroke:none;fill-rule:nonzero;fill:#A3A3A3;fill-opacity:1;" d="M 41.773438 25.484375 C 41.742188 24.972656 41.742188 24.492188 41.742188 23.980469 L 41.742188 22.394531 C 41.742188 21.652344 41.511719 20.988281 41.246094 20.609375 C 40.847656 20.027344 40.21875 19.75 39.414062 19.75 C 38.605469 19.75 37.609375 20.363281 37.296875 20.941406 L 37.609375 21.472656 C 38.171875 21.023438 38.636719 20.796875 39.199219 20.796875 C 39.757812 20.796875 39.992188 20.929688 40.238281 21.257812 C 40.453125 21.542969 40.585938 21.941406 40.585938 22.453125 L 40.585938 23.261719 C 39.742188 23.476562 38.652344 23.875 38.039062 24.273438 C 37.398438 24.6875 37 25.148438 37 25.925781 C 37 26.703125 37.660156 27.5 38.71875 27.5 C 39.777344 27.5 40.1875 27.082031 40.636719 26.078125 L 40.667969 26.078125 C 40.816406 26.824219 41.246094 27.320312 42.386719 27.367188 L 42.601562 26.703125 C 42.070312 26.457031 41.808594 26.039062 41.773438 25.496094 Z M 40.585938 24.746094 C 40.585938 25.886719 39.675781 26.480469 38.996094 26.480469 C 38.316406 26.480469 38.171875 26.085938 38.171875 25.636719 C 38.171875 25.1875 38.5 24.695312 39.628906 24.214844 C 39.941406 24.082031 40.238281 23.949219 40.585938 23.835938 Z M 40.585938 24.746094 "/>
<path style=" stroke:none;fill-rule:nonzero;fill:#A3A3A3;fill-opacity:1;" d="M 49.832031 17.324219 C 50.148438 16.691406 50.332031 16.394531 50.625 16.128906 L 50.578125 15.75 C 50.097656 15.800781 49.863281 15.800781 49.5 15.800781 C 49.132812 15.800781 48.855469 15.800781 48.378906 15.75 L 48.308594 16.128906 C 48.804688 16.394531 48.886719 16.660156 48.886719 17.007812 C 48.886719 17.355469 48.824219 17.703125 48.378906 18.746094 L 47.289062 21.308594 L 46.261719 18.734375 C 45.761719 17.488281 45.699219 17.179688 45.699219 16.792969 C 45.699219 16.410156 45.832031 16.292969 46.199219 16.128906 L 46.148438 15.75 C 45.667969 15.78125 45.367188 15.800781 45.007812 15.800781 C 44.648438 15.800781 44.152344 15.78125 43.671875 15.75 L 43.601562 16.128906 C 44 16.394531 44.113281 16.546875 44.363281 17.089844 C 44.628906 17.683594 44.84375 18.296875 45.027344 18.765625 L 46.664062 22.820312 L 45.472656 25.402344 C 45.226562 25.933594 44.976562 26.199219 44.628906 26.199219 C 44.28125 26.199219 44.214844 26.117188 43.898438 26.117188 C 43.582031 26.117188 43.269531 26.429688 43.269531 26.792969 C 43.269531 27.152344 43.597656 27.488281 44.042969 27.488281 C 44.492188 27.488281 45.019531 27.238281 45.296875 26.957031 C 45.625 26.609375 45.941406 26.097656 46.253906 25.382812 L 49.183594 18.765625 C 49.386719 18.316406 49.582031 17.824219 49.828125 17.324219 Z M 49.832031 17.324219 "/>
<path style=" stroke:none;fill-rule:nonzero;fill:#A3A3A3;fill-opacity:1;" d="M 52.257812 19.710938 C 50.210938 19.710938 48.636719 21.449219 48.636719 23.746094 C 48.636719 26.046875 50.007812 27.519531 52.074219 27.519531 C 54.140625 27.519531 54.519531 26.488281 55.019531 25.25 L 54.621094 25.003906 C 53.941406 25.976562 53.296875 26.34375 52.238281 26.34375 C 51.179688 26.34375 49.890625 25.1875 49.890625 23.480469 C 49.890625 21.777344 49.890625 23.050781 49.921875 22.851562 L 55.011719 22.851562 C 55.042969 22.71875 55.042969 22.605469 55.042969 22.472656 C 55.042969 20.878906 53.832031 19.707031 52.253906 19.707031 Z M 50.039062 22.195312 C 50.242188 21.214844 50.886719 20.457031 51.894531 20.457031 C 52.902344 20.457031 53.582031 21.070312 53.59375 22.195312 Z M 50.039062 22.195312 "/>
<path style=" stroke:none;fill-rule:nonzero;fill:#A3A3A3;fill-opacity:1;" d="M 60.226562 19.738281 C 59.453125 19.738281 58.691406 20.367188 58.242188 21.460938 L 58.222656 21.441406 C 58.242188 21.023438 58.273438 20.367188 58.324219 19.835938 L 57.980469 19.707031 C 57.398438 20.234375 56.988281 20.5 56.226562 20.859375 L 56.226562 21.207031 C 56.824219 21.320312 56.988281 21.472656 57.039062 22.148438 C 57.089844 22.660156 57.089844 23.191406 57.089844 23.703125 L 57.089844 24.121094 C 57.089844 24.632812 57.089844 25.210938 57.039062 25.722656 C 56.988281 26.40625 56.90625 26.664062 56.296875 26.917969 L 56.347656 27.296875 C 56.925781 27.246094 57.292969 27.246094 57.671875 27.246094 C 58.046875 27.246094 58.578125 27.246094 59.15625 27.296875 L 59.207031 26.917969 C 58.484375 26.703125 58.332031 26.40625 58.28125 25.722656 C 58.25 25.210938 58.25 24.632812 58.25 24.121094 L 58.25 23.34375 C 58.25 21.757812 58.890625 20.84375 59.671875 20.84375 C 60.070312 20.84375 60.273438 21.140625 60.699219 21.140625 C 61.128906 21.140625 61.292969 21.007812 61.292969 20.558594 C 61.292969 20.109375 60.910156 19.730469 60.234375 19.730469 Z M 60.226562 19.738281 "/>
<path style=" stroke:none;fill-rule:nonzero;fill:#A3A3A3;fill-opacity:1;" d="M 23.027344 2.875 L 19.984375 2.875 L 19.984375 8.984375 L 23.027344 8.984375 Z M 23.027344 2.875 "/>
<path style=" stroke:none;fill-rule:nonzero;fill:#A3A3A3;fill-opacity:1;" d="M 16.941406 2.875 L 10.96875 2.875 L 10.96875 5.925781 L 13.890625 5.925781 L 13.890625 15.082031 L 19.984375 15.082031 L 19.984375 8.984375 L 16.941406 8.984375 Z M 16.941406 2.875 "/>
<path style=" stroke:none;fill-rule:nonzero;fill:#A3A3A3;fill-opacity:1;" d="M 10.847656 21.191406 L 7.800781 21.191406 L 7.800781 2.875 L 1.714844 2.875 L 1.714844 27.296875 L 19.984375 27.296875 L 19.984375 21.191406 L 13.890625 21.191406 L 13.890625 15.082031 L 10.847656 15.082031 Z M 10.847656 21.191406 "/>
</g>
</svg>
