<svg width="89" height="40" viewBox="0 0 89 40" fill="none" xmlns="http://www.w3.org/2000/svg">
<path fill-rule="evenodd" clip-rule="evenodd" d="M0.333344 0H88.3333V40H0.333344V0ZM6.06221 18.5039C6.73068 18.452 7.19346 18.4519 8.03331 18.4519C10.2272 18.4519 11.787 18.4694 13.0382 18.5387C13.2267 17.6364 13.3638 16.7858 13.4495 15.7446L12.9868 15.6579C12.764 16.3001 12.5925 16.6644 12.3869 16.9942C12.1298 17.3585 11.8555 17.6017 11.2556 17.6884C10.7928 17.7578 10.1758 17.7751 9.43878 17.7751C8.6675 17.7751 8.37611 17.6189 8.34183 16.7686C8.32468 16.4215 8.2904 15.4843 8.2904 14.8769V12.5341C8.85604 12.5341 10.073 12.5513 10.6215 12.6208C11.3928 12.725 11.6327 12.9854 11.8898 13.7837L12.3012 13.6967C12.2497 13.0201 12.2497 12.6208 12.2497 12.187C12.2497 11.753 12.2497 11.3712 12.3012 10.6946L11.8898 10.6076C11.6327 11.406 11.3928 11.6836 10.6215 11.7705C10.073 11.8225 8.87317 11.8572 8.2904 11.8572V9.6359C8.2904 9.01099 8.2904 8.38632 8.34183 7.84836C8.39326 7.15423 8.49609 7.0153 9.30167 7.0153C9.97014 7.0153 10.3472 7.03255 10.7757 7.10201C11.1014 7.15422 11.4956 7.29291 11.7527 7.57075C12.0098 7.84835 12.1983 8.21267 12.4212 8.85482L12.9182 8.76812C12.8668 7.81363 12.7982 7.17147 12.6782 6.28644C12.0098 6.33841 11.4784 6.33842 10.7757 6.33842H7.62196C7.19346 6.33842 6.73068 6.33841 6.06221 6.28644L6.0108 6.72021C6.6964 6.99806 6.81638 7.37985 6.86778 8.14345C6.91921 8.71614 6.91921 9.47973 6.91921 10.0872V14.7034C6.91921 15.3109 6.91921 16.0745 6.86778 16.6472C6.81638 17.4108 6.6964 17.7925 6.0108 18.0702L6.06221 18.5039ZM17.1736 15.12V13.8182C17.1736 12.9343 17.1967 12.3543 17.2223 11.7126C17.2348 11.3969 17.248 11.0663 17.2593 10.6771L16.8994 10.5382C16.2995 11.0936 15.871 11.3712 15.0825 11.753V12.1176C15.6996 12.239 15.871 12.3952 15.9224 13.1068C15.9738 13.6448 15.9738 14.2002 15.9738 14.7382V15.12C15.9738 15.6579 15.9738 16.3348 15.9224 16.8728C15.871 17.5842 15.7853 17.8445 15.1511 18.1049L15.2025 18.5039C15.8024 18.452 16.1795 18.4519 16.5737 18.4519C16.9679 18.4519 17.345 18.452 17.9449 18.5039L17.9963 18.1049C17.3622 17.8445 17.2593 17.5669 17.2079 16.8553C17.1736 16.3174 17.1736 15.658 17.1736 15.1201V15.12ZM16.5737 5.74847C16.0252 5.74847 15.6139 6.165 15.6139 6.72021C15.6139 7.27566 16.0252 7.69219 16.5737 7.69219C17.1222 7.69219 17.5336 7.27566 17.5336 6.72021C17.5336 6.165 17.1222 5.74847 16.5737 5.74847ZM24.9505 11.84H26.5614L26.6986 11.1978L26.5614 10.9027C25.9615 10.9547 25.3616 10.9722 24.9332 10.9722C24.4468 10.9722 24.1388 10.8862 23.8295 10.7998C23.5175 10.7126 23.2042 10.6251 22.705 10.6251C21.1967 10.6251 19.9112 11.9092 19.9112 13.5406C19.9112 14.2869 20.0997 14.8421 20.4939 15.3801C19.6198 16.057 19.3113 16.7511 19.3113 17.428C19.3113 18.2438 19.8084 18.8165 20.5454 19.0766C19.5684 19.7535 19.1742 20.3957 19.1742 21.2115C19.1742 22.3914 20.1511 23.2591 22.0879 23.2591C24.4705 23.2591 25.9958 21.8881 25.9958 20.3262C25.9958 19.0246 25.1903 18.0182 23.5278 17.966L21.4539 17.8967C20.6825 17.862 20.2883 17.5322 20.2883 17.029C20.2883 16.6297 20.4082 16.2306 20.9396 15.8141C21.4366 16.2306 22.0022 16.4563 22.7736 16.4563C24.2819 16.4563 25.5161 15.2414 25.5161 13.5406C25.5161 12.8984 25.3616 12.3085 24.9505 11.84ZM23.2193 19.285C24.5048 19.285 25.0531 19.823 25.0531 20.6213C25.0531 21.4369 24.3333 22.2874 22.3623 22.2874C20.9226 22.2874 20.2883 21.6625 20.2883 20.9164C20.2883 20.3784 20.5282 19.8057 21.1281 19.233C21.8309 19.285 22.4479 19.285 23.2192 19.285H23.2193ZM21.231 13.4364C21.231 11.9787 21.831 11.3193 22.6707 11.3193C23.6134 11.3193 24.2133 12.187 24.2133 13.6273C24.2133 15.1547 23.6648 15.7619 22.7736 15.7619C21.8137 15.7619 21.231 14.9638 21.231 13.4364ZM30.9671 10.5729C28.8416 10.5729 27.2134 12.3952 27.2134 14.8074C27.2134 16.9248 28.636 18.7643 30.7786 18.7643C32.3039 18.7643 33.3152 17.6884 33.8295 16.3868L33.4181 16.1264C32.7153 17.1504 32.0468 17.5322 30.9498 17.5322C29.5787 17.5322 28.5161 16.3173 28.5161 14.5298C28.5161 14.2694 28.5161 14.0785 28.5502 13.8704H33.8295C33.8638 13.7315 33.8638 13.61 33.8638 13.4711C33.8638 11.8052 32.6124 10.5729 30.9671 10.5729ZM32.3555 13.1763H28.6704C28.8759 12.1523 29.5444 11.354 30.59 11.354C31.5497 11.354 32.3382 11.9961 32.3555 13.1763ZM42.1045 15.1719V13.1763C42.1045 12.4819 41.9673 12.0481 41.7445 11.6491C41.3331 10.9722 40.6305 10.5729 39.7905 10.5729C38.7622 10.5729 37.9567 11.2673 37.4938 12.1523L37.4767 12.1348C37.4938 11.7011 37.5281 11.2325 37.5796 10.6771L37.2196 10.5382C36.6197 11.0936 36.1913 11.3712 35.4028 11.753V12.1176C36.0198 12.239 36.1913 12.3952 36.2426 13.1068C36.2942 13.6448 36.2942 14.2002 36.2942 14.7382V15.1719C36.2942 15.7099 36.2942 16.3173 36.2426 16.8553C36.1913 17.5669 36.1056 17.8445 35.4714 18.1049L35.5228 18.5039C36.1227 18.452 36.4998 18.4519 36.8941 18.4519C37.2882 18.4519 37.6653 18.452 38.2652 18.5039L38.3165 18.1049C37.6823 17.8445 37.5796 17.5669 37.5281 16.8553C37.4938 16.3173 37.4938 15.7099 37.4938 15.1719V13.6273C37.4938 12.5166 38.2309 11.701 39.4134 11.701C40.3221 11.701 40.9047 12.3605 40.9047 13.3324V15.1719C40.9047 15.7099 40.9047 16.3173 40.8534 16.8553C40.8018 17.5669 40.7162 17.8445 40.082 18.1049L40.1335 18.5039C40.7334 18.452 41.1105 18.4519 41.5046 18.4519C41.8987 18.4519 42.2761 18.452 42.8757 18.5039L42.9273 18.1049C42.2931 17.8445 42.1902 17.5669 42.1388 16.8553C42.1045 16.3173 42.1045 15.7099 42.1045 15.1719ZM8.2904 30.2723V28.103C8.89032 28.103 9.7473 28.1202 10.3129 28.1897C11.0842 28.2764 11.3242 28.5542 11.5813 29.3525L12.0098 29.2656C11.9584 28.589 11.9584 28.1897 11.9584 27.7559C11.9584 27.3219 11.9584 26.9401 12.0098 26.2634L11.5813 26.1765C11.3242 26.9748 11.0842 27.2524 10.3129 27.3394C9.7473 27.4088 8.89032 27.4261 8.2904 27.4261V25.2915C8.2904 24.6668 8.2904 23.9899 8.32468 23.4172C8.35898 22.7231 8.49609 22.5842 9.30167 22.5842C9.85016 22.5842 10.3472 22.6014 10.7757 22.6709C11.1014 22.7231 11.4956 22.8618 11.7527 23.1396C12.0098 23.4172 12.1983 23.7815 12.4212 24.4237L12.9182 24.337C12.8668 23.3825 12.7982 22.7403 12.6782 21.8553C12.0098 21.9073 11.4784 21.9073 10.7757 21.9073H7.62196C7.19346 21.9073 6.73068 21.9073 6.06221 21.8553L6.0108 22.2891C6.6964 22.5669 6.81638 22.9487 6.86778 23.7123C6.91921 24.285 6.91921 25.0486 6.91921 25.656V30.2723C6.91921 30.8797 6.91921 31.6433 6.86778 32.216C6.81638 32.9796 6.6964 33.3614 6.0108 33.639L6.06221 34.0728C6.73068 34.0208 7.19346 34.0208 7.62196 34.0208C8.05046 34.0208 8.6675 34.0208 9.33595 34.0728L9.38738 33.6043C8.56465 33.3787 8.37611 33.1011 8.32468 32.216C8.2904 31.6433 8.2904 30.8797 8.2904 30.2723ZM17.8956 26.1418C15.7874 26.1418 14.0906 27.9988 14.0906 30.2376C14.0906 32.5456 15.736 34.3331 17.9813 34.3331C20.0553 34.3331 21.7179 32.5109 21.7179 30.2376C21.7179 27.9293 20.0895 26.1418 17.8956 26.1418ZM15.496 30.0814C15.496 28.0163 16.5416 26.9401 17.8442 26.9401C19.2497 26.9401 20.3124 28.2764 20.3124 30.3418C20.3124 32.3722 19.3525 33.5001 18.0328 33.5001C16.5244 33.5001 15.496 32.2508 15.496 30.0814ZM29.5941 30.3418V29.5954C29.5941 28.6741 29.6267 28.0992 29.6639 27.4443C29.6806 27.1493 29.6983 26.8381 29.7143 26.4716C28.9772 26.5236 28.3087 26.5411 27.5718 26.5583L27.5202 26.9401C28.0688 27.2005 28.2916 27.4955 28.343 28.2072C28.3945 28.7451 28.3945 29.3003 28.3945 29.8383V31.0531C28.3945 32.32 27.6404 33.2052 26.4062 33.2052C25.6005 33.2052 25.0522 32.6845 25.0522 31.5739V29.5954C25.0522 28.6753 25.0847 28.1007 25.1217 27.4468C25.1385 27.1511 25.1561 26.8391 25.1721 26.4716C24.435 26.5236 23.7667 26.5411 23.0296 26.5583L22.9783 26.9401C23.5266 27.2005 23.7324 27.4955 23.8008 28.2072C23.8524 28.7451 23.8524 29.3003 23.8524 29.8383V31.73C23.8524 32.4242 23.9723 32.9102 24.1951 33.3092C24.6065 33.9861 25.2921 34.3331 26.1318 34.3331C27.1604 34.3331 28.0345 33.587 28.4459 32.6325L28.4629 32.6498L28.5145 34.2464L28.8743 34.3331C29.4056 33.8646 29.7827 33.587 30.4855 33.2572V32.8927C29.8685 32.7712 29.697 32.6151 29.6457 31.9037C29.5941 31.3655 29.5941 30.8797 29.5941 30.3418ZM38.7736 30.7408V28.7451C38.7736 28.0507 38.6366 27.617 38.4137 27.2179C38.0024 26.541 37.2996 26.1418 36.4598 26.1418C35.4312 26.1418 34.6257 26.8361 34.163 27.7212L34.1458 27.7037C34.163 27.2699 34.1973 26.8014 34.2487 26.246L33.8886 26.107C33.2889 26.6625 32.8603 26.9401 32.0718 27.3219V27.6864C32.689 27.8079 32.8603 27.964 32.9119 28.6757C32.9632 29.2136 32.9632 29.769 32.9632 30.3069V30.307V30.7408V30.7409C32.9632 31.2789 32.9632 31.8862 32.9119 32.4242C32.8603 33.1358 32.7747 33.4134 32.1404 33.6737L32.1918 34.0728C32.7917 34.0208 33.1688 34.0208 33.5631 34.0208C33.9572 34.0208 34.3343 34.0208 34.9342 34.0728L34.9858 33.6737C34.3516 33.4134 34.2487 33.1358 34.1973 32.4242C34.163 31.8862 34.163 31.2788 34.163 30.7408V29.1961C34.163 28.0855 34.8999 27.2699 36.0827 27.2699C36.9911 27.2699 37.5737 27.9293 37.5737 28.9013V30.7408C37.5737 31.2788 37.5737 31.8862 37.5224 32.4242C37.4711 33.1358 37.3852 33.4134 36.7512 33.6737L36.8025 34.0728C37.4025 34.0208 37.7795 34.0208 38.1736 34.0208C38.568 34.0208 38.9451 34.0208 39.545 34.0728L39.5963 33.6737C38.9621 33.4134 38.8594 33.1358 38.8079 32.4242C38.7736 31.8863 38.7736 31.2789 38.7736 30.741V30.7408ZM42.2929 29.9078C42.2929 27.8773 43.3898 26.9228 44.4697 26.9228C45.481 26.9228 46.5606 27.565 46.5606 29.3698V31.1746C46.5606 32.4242 45.858 33.2225 44.7095 33.2225C43.3555 33.2225 42.2929 32.0424 42.2929 29.9078ZM47.7604 30.3418V24.285C47.7604 23.4004 47.7835 22.8202 47.8091 22.1781C47.8216 21.8627 47.8348 21.5324 47.8461 21.1437L47.4863 21.005C46.835 21.5602 46.4236 21.8206 45.6695 22.2196V22.6014C46.2864 22.7231 46.4579 22.8793 46.5093 23.5906C46.5606 24.1286 46.5606 24.6668 46.5606 25.2048V26.7145C46.0466 26.3327 45.3951 26.1418 44.6066 26.1418C42.7728 26.1418 41.0417 27.8079 41.0417 30.3418C41.0417 32.8927 42.6356 34.3331 44.3668 34.3331C45.2408 34.3331 46.1322 33.6218 46.5949 32.754L46.6122 32.7712L46.6805 34.2464L47.0406 34.3331C47.5719 33.8646 47.949 33.587 48.6518 33.2572V32.8927C48.0346 32.7712 47.8633 32.6151 47.8118 31.9037C47.7604 31.3655 47.7604 30.8797 47.7604 30.3418ZM50.3354 27.4261L50.6609 27.9815C51.2438 27.5128 51.7238 27.2699 52.3064 27.2699C52.6835 27.2699 53.1291 27.4088 53.3863 27.7559C53.6091 28.0508 53.7461 28.4673 53.7461 29.0052V29.8558C52.872 30.0814 51.7408 30.4979 51.1066 30.9145C50.4383 31.3482 50.0269 31.8342 50.0269 32.6498C50.0269 33.5696 50.7125 34.2984 51.8094 34.2984C52.5806 34.2984 53.335 33.8646 53.7977 32.806H53.832C53.9862 33.587 54.4319 34.1075 55.6144 34.1597L55.8373 33.4656C55.2887 33.2052 55.0145 32.7712 54.9802 32.1985C54.9459 31.6606 54.9459 31.1573 54.9459 30.6194V28.9533C54.9459 28.1724 54.7061 27.4781 54.4319 27.079C54.0205 26.4716 53.369 26.1765 52.5292 26.1765C51.5179 26.1765 50.6609 26.8187 50.3354 27.4261ZM53.7461 30.4632V31.4177C53.7461 32.6151 52.8034 33.24 52.1008 33.24C51.5009 33.24 51.2438 32.8234 51.2438 32.3547C51.2438 31.8862 51.5865 31.3655 52.7521 30.8622C52.8049 30.8397 52.8573 30.8172 52.9096 30.7948C53.1793 30.6789 53.4447 30.5649 53.7461 30.4632ZM56.683 26.8014L56.7345 27.1657C57.4887 27.3219 57.54 27.565 57.54 28.1724V31.6953C57.54 32.806 57.7115 33.3267 58.0027 33.691C58.3285 34.0903 58.7912 34.2984 59.3225 34.2984C60.0939 34.2984 60.6423 33.7952 60.8308 33.3439L60.5396 32.8407C60.2482 33.1358 59.9567 33.2747 59.6482 33.2747C59.3568 33.2747 59.1512 33.1878 58.997 32.9969C58.8598 32.806 58.7226 32.5456 58.7226 31.4872V27.4088H60.5566L60.6938 26.7667L60.5566 26.4716C60.0616 26.5122 59.6501 26.5211 59.1754 26.5313C59.042 26.5342 58.9036 26.5372 58.7569 26.541C58.7709 26.1339 58.8184 25.6358 58.8633 25.1663C58.8739 25.0555 58.8843 24.9463 58.8941 24.8402L58.4657 24.736C57.9171 25.6905 57.4887 26.194 56.683 26.8014ZM63.9236 30.6888V29.387C63.9236 28.5054 63.9466 27.9261 63.9721 27.2864C63.9847 26.9692 63.9979 26.6371 64.0092 26.246L63.6494 26.107C63.0495 26.6625 62.6211 26.9401 61.8326 27.3219V27.6864C62.4496 27.8079 62.6211 27.964 62.6724 28.6757C62.7238 29.2136 62.7238 29.769 62.7238 30.3069V30.307V30.6888V30.689C62.7238 31.2269 62.7238 31.9037 62.6724 32.4416C62.6211 33.153 62.5352 33.4134 61.901 33.6737L61.9526 34.0728C62.5525 34.0208 62.9296 34.0208 63.3237 34.0208C63.718 34.0208 64.0951 34.0208 64.695 34.0728L64.7463 33.6737C64.1121 33.4134 64.0092 33.1358 63.9579 32.4242C63.9236 31.8862 63.9236 31.2268 63.9236 30.6888ZM63.3237 21.3173C62.7753 21.3173 62.3639 21.7339 62.3639 22.2891C62.3639 22.8445 62.7753 23.261 63.3237 23.261C63.8722 23.261 64.2836 22.8445 64.2836 22.2891C64.2836 21.7339 63.8722 21.3173 63.3237 21.3173ZM69.935 26.1418C67.8268 26.1418 66.13 27.9988 66.13 30.2376C66.13 32.5456 67.7752 34.3331 70.0207 34.3331C72.0946 34.3331 73.7571 32.5109 73.7571 30.2376C73.7571 27.9293 72.1289 26.1418 69.935 26.1418ZM67.5354 30.0814C67.5354 28.0163 68.581 26.9401 69.8834 26.9401C71.2891 26.9401 72.3517 28.2764 72.3517 30.3418C72.3517 32.3722 71.3918 33.5001 70.072 33.5001C68.5637 33.5001 67.5354 32.2508 67.5354 30.0814ZM81.9248 30.7408V28.7451C81.9248 28.0507 81.7878 27.617 81.565 27.2179C81.1536 26.541 80.4508 26.1418 79.611 26.1418C78.5827 26.1418 77.777 26.8361 77.3142 27.7212L77.297 27.7037C77.3142 27.2699 77.3485 26.8014 77.3999 26.246L77.0401 26.107C76.4402 26.6625 76.0115 26.9401 75.2231 27.3219V27.6864C75.8402 27.8079 76.0115 27.964 76.0631 28.6757C76.1144 29.2136 76.1144 29.7691 76.1144 30.307V30.7408C76.1144 31.2788 76.1144 31.8862 76.0631 32.4242C76.0115 33.1358 75.9259 33.4134 75.2917 33.6737L75.3432 34.0728C75.9432 34.0208 76.3202 34.0208 76.7143 34.0208C77.1084 34.0208 77.4855 34.0208 78.0854 34.0728L78.137 33.6737C77.5028 33.4134 77.3999 33.1358 77.3485 32.4242C77.3142 31.8862 77.3142 31.2788 77.3142 30.7408V29.1961C77.3142 28.0855 78.0514 27.2699 79.2339 27.2699C80.1423 27.2699 80.7252 27.9293 80.7252 28.9013V30.7408C80.7252 31.2788 80.7252 31.8862 80.6736 32.4242C80.6223 33.1358 80.5367 33.4134 79.9024 33.6737L79.9538 34.0728C80.5537 34.0208 80.9308 34.0208 81.3251 34.0208C81.7192 34.0208 82.0963 34.0208 82.6962 34.0728L82.7475 33.6737C82.1133 33.4134 82.0107 33.1358 81.9591 32.4242C81.9248 31.8862 81.9248 31.2788 81.9248 30.7408Z" fill="#A3A3A3"/>
</svg>
