<?xml version="1.0" encoding="UTF-8"?>
<svg xmlns="http://www.w3.org/2000/svg" xmlns:xlink="http://www.w3.org/1999/xlink" width="55px" height="40px" viewBox="0 0 55 40" version="1.1">
<g id="surface1">
<path style=" stroke:none;fill-rule:nonzero;fill:#A3A3A3;" d="M 0.0820312 19.445312 L 0 18.792969 C 1.125 18.375 1.324219 17.800781 1.40625 16.652344 C 1.492188 15.789062 1.492188 14.640625 1.492188 13.726562 L 1.492188 6.78125 C 1.492188 5.867188 1.492188 4.71875 1.40625 3.855469 C 1.324219 2.707031 1.125 2.132812 0 1.714844 L 0.0820312 1.0625 C 1.183594 1.140625 1.941406 1.140625 2.644531 1.140625 L 7.820312 1.140625 C 8.972656 1.140625 9.847656 1.140625 10.941406 1.0625 C 11.140625 2.394531 11.25 3.359375 11.335938 4.796875 L 10.519531 4.925781 C 10.15625 3.960938 9.84375 3.414062 9.421875 2.992188 C 9 2.574219 8.351562 2.367188 7.816406 2.289062 C 7.113281 2.183594 6.496094 2.15625 5.398438 2.15625 C 4.074219 2.15625 3.90625 2.367188 3.824219 3.410156 C 3.738281 4.21875 3.738281 5.160156 3.738281 6.101562 L 3.738281 9.441406 C 4.699219 9.441406 6.667969 9.390625 7.566406 9.3125 C 8.832031 9.179688 9.226562 8.765625 9.648438 7.5625 L 10.324219 7.691406 C 10.242188 8.710938 10.242188 9.285156 10.242188 9.9375 C 10.242188 10.589844 10.242188 11.191406 10.324219 12.210938 L 9.648438 12.339844 C 9.226562 11.140625 8.832031 10.75 7.566406 10.589844 C 6.664062 10.484375 4.667969 10.460938 3.738281 10.460938 L 3.738281 13.984375 C 3.738281 14.898438 3.796875 16.308594 3.824219 16.832031 C 3.878906 18.113281 4.359375 18.347656 5.625 18.347656 C 6.890625 18.347656 7.847656 18.320312 8.605469 18.214844 C 9.59375 18.085938 10.042969 17.71875 10.464844 17.171875 C 10.800781 16.675781 11.082031 16.128906 11.449219 15.160156 L 12.207031 15.289062 C 12.066406 16.859375 11.84375 18.136719 11.53125 19.496094 C 9.480469 19.390625 6.917969 19.363281 3.316406 19.363281 C 1.9375 19.363281 1.179688 19.363281 0.078125 19.441406 Z M 0.0820312 19.445312 "/>
<path style=" stroke:none;fill-rule:nonzero;fill:#A3A3A3;" d="M 15.527344 11.273438 C 15.921875 10.28125 16.007812 9.785156 16.007812 9.523438 C 16.007812 9.367188 15.921875 9.285156 15.78125 9.285156 C 15.5 9.285156 14.9375 9.703125 13.644531 11.113281 L 13.109375 10.671875 C 14.710938 8.503906 15.867188 7.511719 16.792969 7.511719 C 17.382812 7.511719 17.917969 8.007812 17.917969 8.792969 C 17.917969 9.628906 17.46875 10.777344 17.046875 11.847656 L 15.21875 16.652344 C 14.910156 17.433594 14.851562 17.644531 14.851562 17.75 C 14.851562 17.878906 14.964844 18.011719 15.132812 18.011719 C 15.441406 18.011719 16.007812 17.722656 17.386719 15.894531 L 17.949219 16.261719 C 16.457031 18.953125 15.160156 19.683594 14.175781 19.683594 C 13.53125 19.683594 12.96875 19.160156 12.96875 18.480469 C 12.96875 17.882812 13.164062 17.308594 13.839844 15.609375 Z M 17.695312 0.332031 C 18.539062 0.332031 19.183594 0.933594 19.183594 1.714844 C 19.183594 2.5 18.539062 3.097656 17.695312 3.097656 C 16.851562 3.097656 16.203125 2.5 16.203125 1.714844 C 16.203125 0.933594 16.851562 0.332031 17.695312 0.332031 Z M 17.695312 0.332031 "/>
<path style=" stroke:none;fill-rule:nonzero;fill:#A3A3A3;" d="M 28.417969 2.875 C 29.09375 3.582031 29.34375 4.46875 29.34375 5.433594 C 29.34375 7.992188 27.316406 9.820312 24.84375 9.820312 C 23.578125 9.820312 22.648438 9.480469 21.832031 8.855469 C 20.960938 9.480469 20.761719 10.082031 20.761719 10.683594 C 20.761719 11.441406 21.410156 11.9375 22.675781 11.988281 L 26.078125 12.09375 C 28.808594 12.171875 30.128906 13.6875 30.128906 15.644531 C 30.128906 17.996094 27.625 20.058594 23.714844 20.058594 C 20.535156 20.058594 18.929688 18.75 18.929688 16.976562 C 18.929688 15.746094 19.578125 14.78125 21.183594 13.765625 C 19.972656 13.371094 19.15625 12.511719 19.15625 11.28125 C 19.15625 10.265625 19.660156 9.21875 21.097656 8.203125 C 20.453125 7.394531 20.140625 6.558594 20.140625 5.433594 C 20.140625 2.980469 22.25 1.046875 24.726562 1.046875 C 26.359375 1.046875 26.78125 1.570312 28.386719 1.570312 C 29.089844 1.570312 30.074219 1.542969 31.058594 1.464844 L 31.28125 1.910156 L 31.058594 2.875 L 28.410156 2.875 Z M 25.574219 14.078125 C 24.308594 14.078125 23.296875 14.078125 22.140625 14 C 21.15625 14.863281 20.761719 15.722656 20.761719 16.535156 C 20.761719 17.65625 21.804688 18.597656 24.167969 18.597656 C 27.402344 18.597656 28.585938 17.316406 28.585938 16.089844 C 28.585938 14.867188 27.683594 14.078125 25.574219 14.078125 Z M 22.3125 5.277344 C 22.3125 7.574219 23.269531 8.777344 24.84375 8.777344 C 26.308594 8.777344 27.210938 7.863281 27.210938 5.566406 C 27.210938 3.398438 26.222656 2.09375 24.675781 2.09375 C 23.296875 2.09375 22.3125 3.082031 22.3125 5.277344 Z M 22.3125 5.277344 "/>
<path style=" stroke:none;fill-rule:nonzero;fill:#A3A3A3;" d="M 36.714844 7.699219 C 39.414062 7.699219 41.46875 9.550781 41.46875 12.058594 C 41.46875 12.269531 41.46875 12.453125 41.414062 12.660156 L 32.746094 12.660156 C 32.691406 12.972656 32.691406 13.261719 32.691406 13.652344 C 32.691406 16.34375 34.4375 18.171875 36.6875 18.171875 C 38.488281 18.171875 39.585938 17.59375 40.738281 16.054688 L 41.414062 16.449219 C 40.570312 18.40625 38.910156 20.027344 36.40625 20.027344 C 32.886719 20.027344 30.554688 17.257812 30.554688 14.070312 C 30.554688 10.441406 33.226562 7.699219 36.714844 7.699219 Z M 38.992188 11.617188 C 38.964844 9.839844 37.667969 8.875 36.09375 8.875 C 34.378906 8.875 33.28125 10.074219 32.941406 11.617188 Z M 38.992188 11.617188 "/>
<path style=" stroke:none;fill-rule:nonzero;fill:#A3A3A3;" d="M 53.148438 7.820312 C 53.148438 8.628906 53.148438 9.542969 53.203125 10.351562 C 53.289062 11.421875 53.457031 11.839844 54.496094 12.234375 L 54.414062 12.832031 C 53.429688 12.753906 52.808594 12.753906 52.160156 12.753906 C 51.515625 12.753906 50.894531 12.753906 49.910156 12.832031 L 49.828125 12.234375 C 50.867188 11.839844 51.007812 11.425781 51.09375 10.351562 C 51.175781 9.542969 51.175781 8.628906 51.175781 7.820312 L 51.175781 5.050781 C 51.175781 3.589844 50.21875 2.59375 48.730469 2.59375 C 46.785156 2.59375 45.578125 3.824219 45.578125 5.492188 L 45.578125 7.820312 C 45.578125 8.628906 45.578125 9.542969 45.632812 10.351562 C 45.71875 11.421875 45.886719 11.839844 46.925781 12.234375 L 46.84375 12.832031 C 45.859375 12.753906 45.238281 12.753906 44.59375 12.753906 C 43.945312 12.753906 43.324219 12.753906 42.339844 12.832031 L 42.257812 12.234375 C 43.296875 11.839844 43.4375 11.425781 43.523438 10.351562 C 43.605469 9.542969 43.605469 8.628906 43.605469 7.820312 L 43.605469 7.164062 C 43.605469 6.355469 43.605469 5.519531 43.523438 4.710938 C 43.4375 3.640625 43.15625 3.402344 42.144531 3.222656 L 42.144531 2.671875 C 43.4375 2.097656 44.140625 1.679688 45.125 0.84375 L 45.714844 1.054688 C 45.632812 1.890625 45.574219 2.59375 45.546875 3.25 L 45.574219 3.273438 C 46.335938 1.941406 47.65625 0.898438 49.347656 0.898438 C 50.726562 0.898438 51.878906 1.5 52.554688 2.515625 C 52.921875 3.117188 53.144531 3.769531 53.144531 4.816406 L 53.144531 7.820312 Z M 53.148438 7.820312 "/>
<path style=" stroke:none;fill-rule:nonzero;fill:#A3A3A3;" d="M 19.800781 39.585938 C 17.4375 39.585938 15.863281 39.378906 14.652344 39.378906 C 13.976562 39.378906 13.21875 39.378906 12.121094 39.457031 L 12.035156 38.800781 C 13.160156 38.382812 13.359375 37.808594 13.441406 36.660156 C 13.527344 35.796875 13.527344 34.644531 13.527344 33.730469 L 13.527344 26.777344 C 13.527344 25.863281 13.527344 24.710938 13.441406 23.847656 C 13.359375 22.699219 13.160156 22.125 12.035156 21.703125 L 12.121094 21.050781 C 13.21875 21.128906 13.976562 21.128906 14.679688 21.128906 C 16.398438 21.128906 17.691406 21 19.601562 21 C 25.3125 21 30.40625 24.136719 30.40625 30.332031 C 30.40625 35.925781 26.101562 39.585938 19.800781 39.585938 Z M 19.601562 38.359375 C 24.808594 38.359375 27.816406 35.457031 27.816406 30.359375 C 27.816406 25.234375 24.1875 22.175781 19.378906 22.175781 C 16.539062 22.175781 15.945312 22.359375 15.863281 23.40625 C 15.777344 24.214844 15.777344 25.15625 15.777344 26.097656 L 15.777344 33.992188 C 15.777344 34.90625 15.804688 36.320312 15.863281 36.839844 C 16.003906 38.175781 16.734375 38.359375 19.601562 38.359375 Z M 19.601562 38.359375 "/>
<path style=" stroke:none;fill-rule:nonzero;fill:#A3A3A3;" d="M 37.761719 20.660156 L 38.296875 20.660156 L 43.5 33.730469 C 43.839844 34.566406 44.34375 35.796875 44.765625 36.660156 C 45.300781 37.808594 45.777344 38.359375 46.707031 38.800781 L 46.621094 39.457031 C 45.527344 39.378906 45.019531 39.378906 44.316406 39.378906 C 43.613281 39.378906 42.574219 39.378906 41.476562 39.457031 L 41.390625 38.800781 C 42.152344 38.488281 42.460938 38.253906 42.460938 37.757812 C 42.460938 37.15625 42.039062 36.136719 41.109375 33.730469 L 40.886719 33.207031 L 34.023438 33.207031 L 33.824219 33.730469 C 32.839844 36.136719 32.671875 37.128906 32.671875 37.730469 C 32.671875 38.226562 32.925781 38.515625 33.742188 38.800781 L 33.65625 39.457031 C 32.558594 39.378906 31.996094 39.378906 31.292969 39.378906 C 30.589844 39.378906 30.195312 39.378906 29.210938 39.457031 L 29.128906 38.800781 C 30.054688 38.359375 30.535156 37.808594 31.066406 36.660156 C 31.488281 35.796875 31.996094 34.566406 32.332031 33.730469 Z M 37.566406 24.683594 L 34.5 32.082031 L 40.464844 32.082031 Z M 37.566406 24.683594 "/>
</g>
</svg>
