<svg xmlns="http://www.w3.org/2000/svg" xmlns:xlink="http://www.w3.org/1999/xlink" width="59px" height="30px" viewBox="0 0 59 30" fill="none" version="1.1">
<g id="surface1">
<path d="M 29.5 29.75 C 32.992188 29.75 35.820312 26.894531 35.820312 23.375 C 35.820312 19.855469 32.992188 17 29.5 17 C 26.007812 17 23.179688 19.855469 23.179688 23.375 C 23.179688 26.894531 26.007812 29.75 29.5 29.75 Z M 29.5 29.75 " fill="#A3A3A3" />
<path d="M 59 29.75 L 50.570312 29.75 C 50.570312 18.03125 41.117188 8.5 29.5 8.5 C 17.882812 8.5 8.429688 18.03125 8.429688 29.75 L 0 29.75 C 0 13.34375 13.234375 0 29.5 0 C 45.765625 0 59 13.34375 59 29.75 Z M 59 29.75 " fill="#A3A3A3" />
</g>
</svg>
