<svg width="98" height="19" viewBox="0 0 98 19" fill="none" xmlns="http://www.w3.org/2000/svg">
<path d="M0 18.6851V0.314916H3.95045V7.26934L10.3238 0.314916H15.1697L8.40129 7.58425L15.4068 18.6851H10.5609L5.58331 10.6285L3.95045 12.3867V18.6851H0Z" fill="#A3A3A3"/>
<path d="M23.549 19C21.7406 19 20.1516 18.5976 18.7821 17.7928C17.4126 16.988 16.3329 15.8771 15.5428 14.4599C14.7702 13.0253 14.384 11.372 14.384 9.5C14.384 7.62799 14.7702 5.98342 15.5428 4.5663C16.3329 3.13168 17.4126 2.01197 18.7821 1.20718C20.1516 0.402394 21.7406 0 23.549 0C25.3574 0 26.9552 0.402394 28.3422 1.20718C29.7293 2.01197 30.8003 3.13168 31.5553 4.5663C32.3278 5.98342 32.7141 7.62799 32.7141 9.5C32.7141 11.372 32.3278 13.0253 31.5553 14.4599C30.8003 15.8771 29.7293 16.988 28.3422 17.7928C26.9552 18.5976 25.3574 19 23.549 19ZM23.549 15.4572C24.62 15.4572 25.533 15.2122 26.288 14.7224C27.0605 14.2325 27.6575 13.5502 28.0789 12.6754C28.5002 11.7831 28.7109 10.7247 28.7109 9.5C28.7109 8.27532 28.5002 7.2256 28.0789 6.35083C27.6575 5.45856 27.0605 4.77624 26.288 4.30387C25.533 3.814 24.62 3.56906 23.549 3.56906C22.5131 3.56906 21.6089 3.814 20.8364 4.30387C20.0638 4.77624 19.4669 5.45856 19.0455 6.35083C18.6241 7.2256 18.4134 8.27532 18.4134 9.5C18.4134 10.7247 18.6241 11.7831 19.0455 12.6754C19.4669 13.5502 20.0638 14.2325 20.8364 14.7224C21.6089 15.2122 22.5131 15.4572 23.549 15.4572Z" fill="#A3A3A3"/>
<path d="M34.3504 18.6851V0.314916H38.3009V15.6409H46.2544V18.6851H34.3504Z" fill="#A3A3A3"/>
<path d="M49.8374 18.6851L45.0705 0.314916H49.2844L52.2604 14.2762L55.8421 0.314916H60.2139L63.664 14.25L66.6663 0.314916H70.9328L66.0079 18.6851H61.2674L57.9753 5.85221L54.578 18.6851H49.8374Z" fill="#A3A3A3"/>
<path d="M68.9547 18.6851L75.6705 0.314916H80.2003L86.9161 18.6851H82.7286L77.9091 4.75L73.0895 18.6851H68.9547ZM71.8781 14.6699L72.9315 11.6257H82.597L83.6241 14.6699H71.8781Z" fill="#A3A3A3"/>
<path d="M87.8821 18.6851V0.314916H91.8326V18.6851H87.8821Z" fill="#A3A3A3"/>
<path d="M94.0496 18.6851V0.314916H98V18.6851H94.0496Z" fill="#A3A3A3"/>
</svg>
