<svg width="112" height="20" viewBox="0 0 112 20" fill="none" xmlns="http://www.w3.org/2000/svg">
<g clip-path="url(#clip0_65_196)">
<path d="M92.7857 20.0714C91.0461 20.0714 89.3065 20.0714 87.5335 20.0379C87.5 13.3601 87.5 6.71576 87.5 0.0714111C93.3348 0.0714111 99.1697 0.0714111 105.039 0.1025C105.139 0.160478 105.204 0.200976 105.273 0.21196C105.615 0.26629 105.972 0.269328 106.298 0.372461C106.766 0.520768 107.235 0.698575 107.662 0.938616C108.289 1.29133 108.923 1.65804 109.472 2.11627C109.962 2.52409 110.344 3.05236 110.689 3.61077C110.907 3.9653 111.151 4.28276 111.222 4.70501C111.25 4.87149 111.332 5.02822 111.384 5.19144C111.473 5.4747 111.636 5.76216 111.627 6.04324C111.605 6.71939 111.78 7.40566 111.507 8.07526C111.327 8.51753 111.23 8.99281 111.07 9.44408C110.845 10.0779 110.391 10.567 109.973 11.0731C109.572 11.559 109.086 11.9474 108.524 12.245C108.279 12.3745 108.068 12.5676 107.784 12.7737C107.793 12.8122 107.792 12.9562 107.853 13.0651C108.058 13.4277 108.28 13.7808 108.504 14.1315C108.707 14.4482 108.926 14.7548 109.131 15.0702C109.26 15.2701 109.377 15.4788 109.502 15.6819C109.67 15.9561 109.837 16.2314 110.013 16.5014C110.218 16.8168 110.436 17.1237 110.639 17.4404C110.863 17.7907 111.08 18.1461 111.294 18.5029C111.418 18.7087 111.516 18.9308 111.65 19.129C111.773 19.3118 111.929 19.4724 112.071 19.6428C112.071 19.719 112.071 19.7952 112.038 19.9C110.09 19.9286 108.176 19.9307 106.262 19.9234C106.143 19.9229 105.984 19.8828 105.913 19.801C105.752 19.6153 105.634 19.3927 105.5 19.1838C105.309 18.8857 105.119 18.5863 104.929 18.2875C104.739 17.9888 104.545 17.6925 104.359 17.3908C104.151 17.0522 103.954 16.707 103.746 16.3682C103.622 16.1656 103.486 15.9707 103.357 15.7706C103.173 15.4821 102.991 15.1918 102.807 14.9028C102.611 14.5943 102.365 14.3057 102.232 13.9722C102.126 13.7073 101.993 13.6397 101.74 13.6401C98.8614 13.6444 95.9825 13.6427 93.1035 13.6436C93.0013 13.6436 92.8991 13.6541 92.7857 13.6604C92.7857 15.8148 92.7857 17.9431 92.7857 20.0714ZM103.535 8.92855C103.821 8.92855 104.107 8.93625 104.392 8.92397C104.48 8.92017 104.573 8.87325 104.652 8.82672C104.904 8.67868 105.134 8.47084 105.403 8.3789C105.898 8.21028 106.065 7.75049 106.186 7.37938C106.46 6.54502 105.988 5.70247 105.24 5.16927C104.688 4.77577 104.052 4.67589 103.461 4.66735C99.9977 4.6174 96.5338 4.6427 93.0702 4.64362C92.9796 4.64364 92.8891 4.65519 92.8068 4.6608C92.8068 6.09477 92.8068 7.5045 92.8068 8.92855C96.3732 8.92855 99.9187 8.92855 103.535 8.92855Z" fill="#A3A3A3"/>
<path d="M67.3906 20.0714C67.0793 19.6353 66.7888 19.2066 66.5266 18.7613C66.1244 18.0779 65.7568 17.3739 65.3454 16.6963C65.0647 16.234 64.7212 15.8104 64.43 15.354C64.1504 14.9156 63.9081 14.4536 63.6369 14.0096C63.5239 13.8245 63.366 13.6671 63.2503 13.4833C63.0388 13.1475 62.8475 12.7991 62.6403 12.4605C62.4555 12.1587 62.2604 11.8631 62.0702 11.5646C61.8801 11.2661 61.6913 10.9668 61.5 10.669C61.3657 10.4599 61.223 10.256 61.0931 10.0442C60.8913 9.71512 60.7019 9.37837 60.4979 9.05071C60.3777 8.8577 60.2313 8.68102 60.1111 8.48801C59.9012 8.15095 59.7059 7.80483 59.498 7.46651C59.3127 7.16505 59.1186 6.86902 58.9285 6.57057C58.7382 6.27202 58.547 5.97408 58.3581 5.67469C58.2312 5.47356 58.1059 5.2714 57.9829 5.06786C57.7723 4.71936 57.5667 4.36781 57.3536 4.02086C57.2665 3.87902 57.1618 3.74806 57.0712 3.60824C56.8786 3.31132 56.6919 3.01066 56.4994 2.71374C56.3125 2.42549 56.117 2.14274 55.9334 1.85246C55.777 1.60531 55.6298 1.35227 55.4829 1.09934C55.2959 0.777414 55.1132 0.452964 54.9286 0.100506C56.9539 0.0714113 58.9792 0.0714113 61.0383 0.0998926C61.2616 0.426087 61.4542 0.721941 61.64 1.02194C61.9428 1.51056 62.2411 2.00193 62.5414 2.49204C62.6711 2.70357 62.8013 2.91471 62.931 3.12625C63.0944 3.39294 63.2572 3.66 63.4207 3.92663C63.6385 4.28159 63.8514 4.63959 64.076 4.99011C64.279 5.3067 64.4987 5.61249 64.7036 5.92781C64.8336 6.12778 64.9471 6.33841 65.0735 6.5408C65.2614 6.84149 65.4564 7.13767 65.6441 7.43844C65.8369 7.74745 66.0228 8.06075 66.215 8.37016C66.3958 8.66119 66.5829 8.9483 66.7633 9.23956C66.9175 9.4886 67.0601 9.74508 67.219 9.99103C67.4231 10.3068 67.6423 10.6128 67.8473 10.9281C67.9774 11.128 68.0911 11.3386 68.2163 11.5419C68.3851 11.8158 68.5604 12.0858 68.7284 12.3603C68.9411 12.7077 69.1413 13.0631 69.3621 13.4053C69.513 13.6392 69.69 13.8564 69.8376 14.057C70.0663 13.6864 70.2843 13.3304 70.505 12.9763C70.6921 12.6762 70.8867 12.3807 71.0701 12.0783C71.2428 11.7937 71.3927 11.4946 71.5749 11.2164C71.8721 10.7626 72.1972 10.327 72.4924 9.87194C72.8157 9.37372 73.1175 8.86159 73.4307 8.35678C73.546 8.1709 73.6734 7.9923 73.784 7.80377C73.953 7.51583 74.1064 7.21876 74.277 6.93179C74.4896 6.57401 74.7082 6.2196 74.9329 5.86923C75.1359 5.55253 75.3484 5.24183 75.5607 4.9312C75.678 4.75961 75.8186 4.60237 75.9218 4.42315C76.0943 4.12366 76.2234 3.79765 76.4102 3.5083C76.7031 3.05459 77.0616 2.64109 77.3322 2.17561C77.6418 1.64316 77.9174 1.09572 78.3206 0.620087C78.4358 0.484173 78.4432 0.256831 78.5 0.0714111C80.5253 0.0714113 82.5506 0.0714113 84.6094 0.100979C84.4116 0.548046 84.1835 0.967324 83.948 1.38239C83.8035 1.63713 83.6523 1.8884 83.4955 2.13582C83.3115 2.42636 83.1163 2.70985 82.9294 2.9986C82.7368 3.29608 82.545 3.59415 82.3594 3.89596C82.2557 4.06449 82.1736 4.24646 82.0672 4.41308C81.7866 4.85257 81.4965 5.28603 81.213 5.72376C81.0205 6.02104 80.8293 6.31924 80.6442 6.62113C80.4421 6.95069 80.2508 7.28686 80.0489 7.6165C79.9189 7.82862 79.7771 8.0334 79.6428 8.24288C79.4515 8.54125 79.2622 8.84095 79.072 9.14001C78.8817 9.43902 78.688 9.73589 78.5023 10.0377C78.3987 10.2062 78.3165 10.3882 78.2102 10.5548C77.9295 10.9943 77.6395 11.4278 77.3561 11.8655C77.1636 12.1628 76.9721 12.4609 76.7871 12.7629C76.5851 13.0925 76.3944 13.4289 76.1925 13.7586C76.0626 13.9707 75.9201 14.1751 75.7857 14.3846C75.5943 14.6829 75.4052 14.9827 75.215 15.2817C75.0248 15.5808 74.8359 15.8807 74.6433 16.1782C74.5526 16.3182 74.448 16.4495 74.3607 16.5916C74.1473 16.9389 73.9457 17.2935 73.7284 17.6383C73.618 17.8137 73.4674 17.9647 73.3646 18.1437C73.1922 18.4438 73.0586 18.7665 72.881 19.0631C72.6743 19.4085 72.4378 19.7361 72.2143 20.0714C70.6176 20.0714 69.0208 20.0714 67.3906 20.0714Z" fill="#A3A3A3"/>
<path d="M5.32365 0.0714111C5.35713 5.15177 5.35713 10.2321 5.35713 15.3387C11.5869 15.3387 17.8047 15.3387 24.047 15.3387C24.047 16.8693 24.047 18.3742 24.047 19.9286C16.089 19.9286 8.11368 19.9286 0.104887 19.9286C0.0714111 13.3177 0.0714111 6.70693 0.0714111 0.0714111C1.81092 0.0714111 3.55055 0.0714111 5.32365 0.0714111Z" fill="#A3A3A3"/>
<path d="M49.7523 0.0714111C49.7857 0.438683 49.7857 0.805954 49.7857 1.2011C50.591 1.2011 51.3819 1.2011 52.1934 1.2011C52.1934 2.01913 52.1934 2.80967 52.1934 3.62842C51.4102 3.62842 50.6194 3.62842 49.8005 3.62842C49.8005 4.01781 49.8005 4.38042 49.8005 4.76743C49.6716 4.77449 49.5694 4.78498 49.4671 4.785C42.9242 4.78577 36.3814 4.78576 29.8386 4.78555C29.404 4.78553 29.3584 4.74015 29.3573 4.31393C29.3567 4.10202 29.3572 3.8901 29.3572 3.65045C28.5939 3.65045 27.8506 3.65045 27.0896 3.65045C27.0896 2.83222 27.0896 2.04176 27.0896 1.22307C27.8337 1.22307 28.5769 1.22307 29.3572 1.22307C29.3572 0.843568 29.3572 0.490891 29.3572 0.104812C36.1444 0.0714111 42.9316 0.0714111 49.7523 0.0714111Z" fill="#A3A3A3"/>
<path d="M33.5 15.3571C38.9386 15.3571 44.3415 15.3571 49.7729 15.3571C49.7729 15.7338 49.7729 16.0968 49.7729 16.4878C50.5919 16.4878 51.3831 16.4878 52.1941 16.4878C52.1941 17.2593 52.1941 18.0026 52.1941 18.7746C51.4069 18.7746 50.6157 18.7746 49.7962 18.7746C49.7962 19.1646 49.7962 19.5277 49.7962 19.9362C42.9788 19.9362 36.1899 19.9362 29.3724 19.9362C29.3724 19.5541 29.3724 19.1914 29.3724 18.8003C28.6012 18.8003 27.8575 18.8003 27.0928 18.8003C27.0928 18.029 27.0928 17.2857 27.0928 16.5136C27.8285 16.5136 28.5721 16.5136 29.344 16.5136C29.344 16.1236 29.344 15.7606 29.344 15.3571C30.7362 15.3571 32.1002 15.3571 33.5 15.3571Z" fill="#A3A3A3"/>
<path d="M30.3587 7.64282C33.4618 7.64282 36.5296 7.64282 39.6256 7.64282C39.6256 8.01534 39.6256 8.37777 39.6256 8.76801C40.4436 8.76801 41.2344 8.76801 42.0482 8.76801C42.0482 9.58571 42.0482 10.3762 42.0482 11.1949C41.2724 11.1949 40.4816 11.1949 39.6628 11.1949C39.6628 11.5839 39.6628 11.9464 39.6628 12.333C36.2184 12.333 32.8022 12.333 29.3576 12.333C29.3576 11.9676 29.3576 11.6047 29.3576 11.2151C28.5868 11.2151 27.8436 11.2151 27.0862 11.2151C27.0862 10.3968 27.0862 9.6065 27.0862 8.78817C27.8402 8.78817 28.5835 8.78817 29.3572 8.78817C29.3572 8.62166 29.3634 8.48216 29.3561 8.34336C29.3222 7.69298 29.4019 7.60516 30.0736 7.64219C30.1566 7.64677 30.2401 7.64282 30.3587 7.64282Z" fill="#A3A3A3"/>
</g>
<defs>
<clipPath id="clip0_65_196">
<rect width="112" height="20" fill="white"/>
</clipPath>
</defs>
</svg>
