<svg xmlns="http://www.w3.org/2000/svg" xmlns:xlink="http://www.w3.org/1999/xlink" width="60px" height="39px" fill="none" viewBox="0 0 60 39" version="1.1">
<g id="surface1">
<path d="M 2.339844 39 L 0 39 L 0 31.425781 L 2.339844 31.425781 L 6.070312 36.019531 L 9.8125 31.425781 L 12.152344 31.425781 L 12.152344 39 L 9.8125 39 L 9.8125 34.417969 L 6.070312 39 L 2.339844 34.417969 Z M 2.339844 39 " fill="#A3A3A3" />
<path d="M 18.753906 37.105469 L 23.046875 37.105469 C 23.695312 37.105469 24.222656 36.578125 24.222656 35.921875 L 24.222656 34.519531 C 24.222656 33.863281 23.695312 33.320312 23.046875 33.320312 L 18.753906 33.320312 Z M 16.414062 31.425781 L 23.757812 31.425781 C 25.296875 31.425781 26.574219 32.714844 26.574219 34.28125 L 26.574219 36.160156 C 26.574219 37.726562 25.296875 39 23.757812 39 L 16.414062 39 Z M 16.414062 31.425781 " fill="#A3A3A3" />
<path d="M 33.175781 39 L 30.835938 39 L 30.835938 31.425781 L 33.175781 31.425781 L 36.902344 36.019531 L 40.644531 31.425781 L 42.984375 31.425781 L 42.984375 39 L 40.644531 39 L 40.644531 34.417969 L 36.902344 39 L 33.175781 34.417969 Z M 33.175781 39 " fill="#A3A3A3"/>
<path d="M 47.246094 39 L 52.453125 31.425781 L 54.792969 31.425781 L 60 39 L 51.238281 39 L 52.542969 37.105469 L 55.84375 37.105469 L 53.617188 33.875 L 50.101562 39 Z M 47.246094 39 " fill="#A3A3A3" />
<path d="M 30.839844 27.257812 C 30.839844 22.648438 30.839844 18.066406 30.839844 13.472656 C 32.449219 13.121094 34.054688 12.769531 35.679688 12.414062 C 35.679688 14.5 35.679688 16.574219 35.679688 18.695312 C 38.5625 17 41.40625 15.328125 44.285156 13.632812 C 44.191406 13.574219 44.121094 13.53125 44.050781 13.488281 C 39.695312 10.929688 35.34375 8.367188 30.988281 5.808594 C 30.871094 5.738281 30.828125 5.664062 30.828125 5.527344 C 30.835938 3.75 30.832031 1.976562 30.832031 0.203125 C 30.832031 0.144531 30.832031 0.0898438 30.832031 0 C 38.5625 4.546875 46.269531 9.082031 54 13.632812 C 46.269531 18.179688 38.566406 22.710938 30.839844 27.257812 Z M 30.839844 27.257812 " fill="#A3A3A3" />
<path d="M 6 13.628906 C 13.738281 9.078125 21.441406 4.546875 29.164062 0 C 29.171875 0.078125 29.175781 0.132812 29.175781 0.183594 C 29.175781 1.972656 29.175781 3.757812 29.179688 5.546875 C 29.179688 5.671875 29.140625 5.738281 29.03125 5.800781 C 24.691406 8.351562 20.355469 10.90625 16.015625 13.457031 C 15.929688 13.507812 15.84375 13.5625 15.726562 13.632812 C 18.597656 15.320312 21.4375 16.992188 24.316406 18.6875 C 24.316406 16.574219 24.316406 14.496094 24.316406 12.394531 C 24.628906 12.464844 24.910156 12.527344 25.191406 12.589844 C 26.472656 12.875 27.75 13.164062 29.027344 13.449219 C 29.132812 13.46875 29.179688 13.503906 29.179688 13.625 C 29.175781 18.128906 29.175781 22.640625 29.175781 27.148438 C 29.175781 27.175781 29.171875 27.203125 29.167969 27.261719 C 21.445312 22.71875 13.738281 18.183594 6 13.628906 Z M 6 13.628906 " fill="#A3A3A3"/>
</g>
</svg>
