<svg width="320" height="206" viewBox="0 0 320 206" fill="none" xmlns="http://www.w3.org/2000/svg">
<path d="M12.4813 206H0V166H12.4813L32.3712 190.267L52.3278 166H64.8091V206H52.3278V181.8L32.3712 206L12.4813 181.8V206Z" fill="#A3A3A3"/>
<path d="M100.018 196H122.912C126.383 196 129.186 193.2 129.186 189.733V182.333C129.186 178.867 126.383 176 122.912 176H100.018V196ZM87.5372 166H126.716C134.926 166 141.734 172.8 141.734 181.067V191C141.734 199.267 134.926 206 126.716 206H87.5372V166Z" fill="#A3A3A3"/>
<path d="M176.931 206H164.45V166H176.931L196.821 190.267L216.778 166H229.259V206H216.778V181.8L196.821 206L176.931 181.8V206Z" fill="#A3A3A3"/>
<path d="M251.987 206L279.753 166H292.234L320 206H273.279L280.22 196H297.841L285.96 178.933L267.205 206H251.987Z" fill="#A3A3A3"/>
<path d="M164.477 143.98C164.477 119.626 164.477 95.4295 164.477 71.1561C173.055 69.3011 181.615 67.4498 190.296 65.5727C190.296 76.5999 190.296 87.5479 190.296 98.7534C205.662 89.8001 220.836 80.9589 236.192 72.011C235.68 71.7022 235.309 71.4724 234.932 71.2517C211.717 57.7243 188.505 44.1931 165.279 30.6841C164.645 30.3145 164.422 29.9248 164.424 29.1912C164.449 19.815 164.44 10.4388 164.44 1.06264C164.44 0.764803 164.44 0.466971 164.44 0C205.665 24.0233 246.762 47.9694 288 72C246.773 96.0233 205.693 119.962 164.477 143.98Z" fill="#A3A3A3"/>
<path d="M32 71.9945C73.2613 47.951 114.351 24.0086 155.552 0C155.576 0.404463 155.605 0.691265 155.605 0.978066C155.607 10.4168 155.6 19.8555 155.623 29.2942C155.625 29.9634 155.421 30.309 154.843 30.6455C131.694 44.1122 108.558 57.5993 85.4203 71.0844C84.957 71.3547 84.4992 71.6305 83.8717 72.0037C99.1881 80.9294 114.34 89.7596 129.68 98.6983C129.68 87.5443 129.68 76.5778 129.68 65.4716C131.351 65.8374 132.858 66.1629 134.363 66.4975C141.179 68.0105 147.994 69.5346 154.814 71.0293C155.379 71.1525 155.622 71.3198 155.62 71.9577C155.603 95.7677 155.605 119.58 155.605 143.39C155.605 143.54 155.587 143.689 155.569 144C114.38 119.999 73.2741 96.0453 32 71.9945Z" fill="#A3A3A3"/>
</svg>
