<svg xmlns="http://www.w3.org/2000/svg" xmlns:xlink="http://www.w3.org/1999/xlink" width="40px" height="40px" viewBox="0 0 40 40" fill="none" version="1.1">
<g id="surface1">
<path d="M 39.988281 14.632812 L 29.277344 14.632812 L 29.277344 25.34375 L 39.988281 25.34375 Z M 39.988281 14.632812 " fill="#A3A3A3" />
<path d="M 25.355469 0 L 20 9.273438 L 29.277344 14.628906 L 34.628906 5.355469 Z M 25.355469 0 " fill="#A3A3A3" />
<path d="M 10.722656 25.335938 L 5.367188 34.609375 L 14.640625 39.964844 L 19.996094 30.691406 Z M 10.722656 25.335938 " fill="#A3A3A3" />
<path d="M 10.722656 14.632812 L 0.0117188 14.632812 L 0.0117188 25.34375 L 10.722656 25.34375 Z M 10.722656 14.632812 " fill="#A3A3A3" />
<path d="M 29.277344 25.34375 L 20.003906 30.699219 L 25.359375 39.972656 L 34.632812 34.617188 Z M 29.277344 25.34375 " fill="#A3A3A3" />
<path d="M 14.644531 0.00390625 L 5.367188 5.359375 L 10.722656 14.636719 L 20 9.28125 Z M 14.644531 0.00390625 " fill="#A3A3A3" />
</g>
</svg>
