<?xml version="1.0" encoding="UTF-8"?>
<svg xmlns="http://www.w3.org/2000/svg" xmlns:xlink="http://www.w3.org/1999/xlink" width="126px" height="30px" viewBox="0 0 126 30" version="1.1">
<g id="surface1">
<path style=" stroke:none;fill-rule:nonzero;fill:rgb(63.921571%,63.921571%,63.921571%);fill-opacity:1;" d="M 43.363281 21.449219 C 45.535156 21.449219 47.175781 20.988281 47.175781 18.75 C 47.175781 17.128906 46.140625 16.4375 44.601562 16.210938 L 41.066406 15.6875 C 38.4375 15.308594 37.117188 13.898438 37.117188 11.449219 C 37.117188 8.140625 39.878906 6.78125 43.085938 6.78125 C 45.125 6.78125 46.652344 7.242188 47.6875 8.167969 C 48.71875 9.089844 49.289062 10.308594 49.398438 11.828125 L 47.105469 11.828125 C 46.828125 9.59375 45.28125 8.679688 43.0625 8.679688 C 41.867188 8.679688 40.976562 8.921875 40.386719 9.402344 C 39.800781 9.882812 39.503906 10.539062 39.503906 11.378906 C 39.503906 12.691406 40.292969 13.402344 41.546875 13.605469 L 45.285156 14.171875 C 48.460938 14.640625 49.558594 16.25 49.558594 18.4375 C 49.558594 21.703125 47.492188 23.34375 43.359375 23.34375 C 41.035156 23.34375 39.332031 22.8125 38.257812 21.746094 C 37.1875 20.679688 36.652344 19.324219 36.652344 17.683594 L 38.949219 17.683594 C 39.023438 20.195312 40.492188 21.449219 43.359375 21.449219 Z M 43.363281 21.449219 "/>
<path style=" stroke:none;fill-rule:nonzero;fill:rgb(63.921571%,63.921571%,63.921571%);fill-opacity:1;" d="M 77.523438 12.703125 C 74.84375 12.703125 74.261719 15.203125 74.261719 17.964844 L 74.261719 22.964844 L 72.011719 22.964844 L 72.011719 15.789062 C 72.011719 13.90625 71.398438 12.707031 69.578125 12.707031 C 66.914062 12.707031 66.316406 15.222656 66.316406 17.96875 L 66.316406 22.96875 L 64.019531 22.96875 L 64.019531 11.125 L 66.316406 11.125 L 66.316406 13.703125 C 67.082031 11.730469 68.429688 10.742188 70.359375 10.742188 C 72.285156 10.742188 73.648438 11.671875 74.097656 13.796875 C 74.863281 11.757812 76.265625 10.742188 78.296875 10.742188 C 80.929688 10.742188 82.25 12.351562 82.25 15.574219 L 82.25 22.96875 L 79.953125 22.96875 L 79.953125 15.792969 C 79.953125 13.902344 79.332031 12.710938 77.519531 12.710938 Z M 77.523438 12.703125 "/>
<path style=" stroke:none;fill-rule:nonzero;fill:rgb(63.921571%,63.921571%,63.921571%);fill-opacity:1;" d="M 97.894531 12.703125 C 95.214844 12.703125 94.628906 15.203125 94.628906 17.964844 L 94.628906 22.964844 L 92.378906 22.964844 L 92.378906 15.789062 C 92.378906 13.90625 91.765625 12.707031 89.941406 12.707031 C 87.28125 12.707031 86.679688 15.21875 86.679688 17.96875 L 86.679688 22.96875 L 84.382812 22.96875 L 84.382812 11.125 L 86.679688 11.125 L 86.679688 13.703125 C 87.445312 11.730469 88.792969 10.742188 90.722656 10.742188 C 92.648438 10.742188 94.011719 11.679688 94.464844 13.796875 C 95.226562 11.757812 96.628906 10.742188 98.664062 10.742188 C 101.292969 10.742188 102.613281 12.351562 102.613281 15.574219 L 102.613281 22.96875 L 100.320312 22.96875 L 100.320312 15.792969 C 100.320312 13.910156 99.707031 12.710938 97.882812 12.710938 Z M 97.894531 12.703125 "/>
<path style=" stroke:none;fill-rule:nonzero;fill:rgb(63.921571%,63.921571%,63.921571%);fill-opacity:1;" d="M 108.398438 17.015625 C 108.398438 13.363281 110.492188 10.738281 114.320312 10.738281 C 118.148438 10.738281 120.242188 13.320312 120.242188 17.015625 C 120.242188 20.714844 118.171875 23.34375 114.320312 23.34375 C 110.46875 23.34375 108.398438 20.683594 108.398438 17.015625 Z M 114.320312 21.449219 C 117.046875 21.449219 117.925781 19.878906 117.925781 17.039062 C 117.925781 14.203125 117.050781 12.632812 114.320312 12.632812 C 111.589844 12.632812 110.714844 14.199219 110.714844 17.039062 C 110.714844 19.882812 111.589844 21.449219 114.320312 21.449219 Z M 114.320312 21.449219 "/>
<path style=" stroke:none;fill-rule:nonzero;fill:rgb(63.921571%,63.921571%,63.921571%);fill-opacity:1;" d="M 104.582031 7.210938 L 106.992188 7.210938 L 106.992188 9.339844 L 104.582031 9.339844 Z M 104.636719 11.117188 L 106.933594 11.117188 L 106.933594 22.964844 L 104.636719 22.964844 Z M 104.636719 11.117188 "/>
<path style=" stroke:none;fill-rule:nonzero;fill:rgb(63.921571%,63.921571%,63.921571%);fill-opacity:1;" d="M 60.785156 11.117188 L 60.777344 11.144531 L 57.015625 21.28125 L 56.613281 22.46875 L 56.246094 21.28125 L 52.578125 11.113281 L 50.214844 11.113281 L 54.550781 22.957031 L 56.398438 22.957031 L 55.347656 25.796875 L 51.949219 25.796875 L 51.949219 27.691406 L 53.925781 27.691406 C 54.828125 27.691406 55.53125 27.570312 56.035156 27.316406 C 56.542969 27.058594 56.9375 26.691406 57.230469 26.203125 C 57.523438 25.710938 57.851562 24.976562 58.214844 24 L 63.019531 11.113281 L 60.789062 11.113281 Z M 60.785156 11.117188 "/>
<path style=" stroke:none;fill-rule:nonzero;fill:rgb(63.921571%,63.921571%,63.921571%);fill-opacity:1;" d="M 120.984375 7.210938 L 120.984375 7.59375 L 120.265625 7.59375 L 120.265625 9.339844 L 119.816406 9.339844 L 119.816406 7.59375 L 119.097656 7.59375 L 119.097656 7.210938 Z M 121.246094 7.210938 L 121.886719 7.210938 L 122.460938 8.699219 L 122.496094 8.699219 L 123.066406 7.210938 L 123.707031 7.210938 L 123.707031 9.339844 L 123.269531 9.339844 L 123.269531 7.878906 L 123.238281 7.878906 L 122.671875 9.339844 L 122.289062 9.339844 L 121.726562 7.878906 L 121.691406 7.878906 L 121.691406 9.339844 L 121.257812 9.339844 L 121.257812 7.210938 Z M 121.246094 7.210938 "/>
<path style=" stroke:none;fill-rule:nonzero;fill:rgb(63.921571%,63.921571%,63.921571%);fill-opacity:1;" d="M 11.359375 22.964844 L 11.3125 23.046875 Z M 16.175781 2.308594 L 13.425781 6.378906 L 16.175781 10.402344 L 18.925781 6.378906 Z M 20.40625 8.570312 L 17.78125 12.746094 L 24.753906 22.957031 L 30.113281 22.957031 L 20.402344 8.570312 Z M 16.175781 15.304688 L 11.359375 22.957031 L 20.992188 22.957031 Z M 21.046875 23.042969 L 21 22.957031 Z M 11.949219 8.578125 L 2.238281 22.964844 L 7.59375 22.964844 L 14.570312 12.75 L 11.941406 8.582031 Z M 11.949219 8.578125 "/>
</g>
</svg>
