<svg width="208px" height="48px" viewBox="0 0 208 48" fill="none" xmlns="http://www.w3.org/2000/svg">
<g id="surface1">
<path d="M71.5832 34.3174C75.1684 34.3174 77.8771 33.5829 77.8771 29.9977C77.8771 27.4075 76.1714 26.3019 73.6285 25.9387L67.7927 25.1016C63.4493 24.4935 61.2698 22.235 61.2698 18.3181C61.2698 13.0271 65.8342 10.8475 71.1252 10.8475C74.4893 10.8475 77.0163 11.5899 78.7221 13.0666C80.4278 14.5433 81.3676 16.4939 81.5492 18.9261H77.7586C77.3006 15.3488 74.7499 13.8879 71.0857 13.8879C69.1115 13.8879 67.6426 14.2748 66.6713 15.0408C65.7 15.8147 65.2104 16.865 65.2104 18.2075C65.2104 20.3081 66.5133 21.4453 68.5824 21.7691L74.7578 22.6772C80.0014 23.4274 81.8098 26.0018 81.8098 29.5002C81.8098 34.728 78.3983 37.3498 71.5753 37.3498C67.7374 37.3498 64.9261 36.4969 63.1571 34.7912C61.3882 33.0854 60.5037 30.9217 60.5037 28.292H64.2943C64.4206 32.3115 66.845 34.3174 71.5753 34.3174H71.5832Z" fill="A3A3A3" />
<path d="M127.976 20.3239C123.553 20.3239 122.59 24.3277 122.59 28.7421V36.7417H118.878V25.2595C118.878 22.2508 117.867 20.3318 114.859 20.3318C110.46 20.3318 109.473 24.3593 109.473 28.75V36.7496H105.682V17.7969H109.473V21.927C110.736 18.7682 112.963 17.1888 116.146 17.1888C119.328 17.1888 121.579 18.6734 122.321 22.077C123.585 18.8156 125.899 17.1888 129.255 17.1888C133.598 17.1888 135.778 19.7632 135.778 24.92V36.7496H131.987V25.2674C131.987 22.2429 130.961 20.3397 127.968 20.3397L127.976 20.3239Z" fill="A3A3A3" />
<path d="M161.601 20.3239C157.179 20.3239 156.215 24.3277 156.215 28.7421V36.7417H152.496V25.2595C152.496 22.2508 151.485 20.3318 148.476 20.3318C144.085 20.3318 143.09 24.3514 143.09 28.75V36.7496H139.3V17.7969H143.09V21.927C144.354 18.7682 146.581 17.1888 149.763 17.1888C152.946 17.1888 155.196 18.6892 155.939 22.077C157.202 18.8156 159.516 17.1888 162.872 17.1888C167.216 17.1888 169.395 19.7632 169.395 24.92V36.7496H165.605V25.2674C165.605 22.2587 164.594 20.3397 161.585 20.3397L161.601 20.3239Z" fill="A3A3A3" />
<path d="M178.943 27.2259C178.943 21.3821 182.402 17.1809 188.719 17.1809C195.037 17.1809 198.496 21.311 198.496 27.2259C198.496 33.1407 195.076 37.3498 188.719 37.3498C182.362 37.3498 178.943 33.0933 178.943 27.2259ZM188.719 34.3174C193.22 34.3174 194.673 31.8061 194.673 27.2654C194.673 22.7246 193.228 20.2134 188.719 20.2134C184.21 20.2134 182.765 22.7167 182.765 27.2654C182.765 31.814 184.21 34.3174 188.719 34.3174Z" fill="A3A3A3" />
<path d="M172.641 11.5346H176.621V14.9461H172.641V11.5346ZM172.736 17.789H176.526V36.7417H172.736V17.789Z" fill="A3A3A3" />
<path d="M100.344 17.789L100.328 17.8285L94.1212 34.0489L93.4579 35.952L92.8498 34.0489L86.7928 17.7811H82.8917L90.0543 36.7338H93.1025L91.3652 41.2746H85.7583V44.307H89.0198C90.5123 44.307 91.6731 44.1096 92.5023 43.7069C93.3394 43.2962 93.9949 42.704 94.4766 41.9222C94.9583 41.1404 95.5032 39.9637 96.1033 38.4001L104.032 17.7811H100.352L100.344 17.789Z" fill="A3A3A3" />
<path d="M199.72 11.5346V12.1505H198.535V14.9461H197.793V12.1505H196.608V11.5346H199.72ZM200.154 11.5346H201.212L202.16 13.9195H202.215L203.155 11.5346H204.213V14.9461H203.494V12.6086H203.439L202.507 14.9461H201.876L200.944 12.6086H200.888V14.9461H200.17V11.5346H200.154Z" fill="A3A3A3" />
<path d="M18.7524 36.7417L18.6734 36.876ZM26.7047 3.69287L22.1639 10.2079L26.7047 16.6439L31.2454 10.2079L26.7047 3.69287ZM33.6856 13.7141L29.3502 20.395L40.864 36.7338H49.7086L33.6777 13.7141H33.6856ZM26.7047 24.4856L18.7524 36.7338H34.6569L26.7047 24.4856ZM34.7438 36.8681L34.6648 36.7338ZM19.7237 13.722L3.69287 36.7417H12.5375L24.0513 20.4029L19.7158 13.7299L19.7237 13.722Z" fill="A3A3A3" />
</g>
</svg>
