<svg width="96" height="32" viewBox="0 0 96 32" fill="none" xmlns="http://www.w3.org/2000/svg">
<g clip-path="url(#clip0_70_40)">
<mask id="mask0_70_40" style="mask-type:luminance" maskUnits="userSpaceOnUse" x="0" y="0" width="96" height="32">
<path d="M96 0H0V32H96V0Z" fill="white"/>
</mask>
<g mask="url(#mask0_70_40)">
<path d="M2.70073 0.185486C1.46623 0.625019 0.577382 1.55432 0.18234 2.81012C-0.00283618 3.36268 -0.0151812 4.73151 0.00950888 16.0463L0.046544 28.6672L0.35517 29.2951C0.737867 30.0988 1.47857 30.8523 2.26865 31.2416L2.88591 31.5556H15.7248H28.5636L29.1809 31.2416C29.9709 30.8523 30.7116 30.0988 31.0943 29.2951L31.403 28.6672V15.7952V2.92315L31.0943 2.29524C30.7116 1.49153 29.9709 0.738042 29.1809 0.348741L28.5636 0.0347891L15.9099 0.00967299C4.6389 -0.0154432 3.19453 -0.00288509 2.70073 0.185486ZM19.1196 6.12546V8.00916H11.8361H4.55249V6.12546V4.24174H11.8361H19.1196V6.12546ZM26.897 6.12546V8.00916H23.6873H20.4776V6.12546V4.24174H23.6873H26.897V6.12546ZM19.1196 12.53V14.4138H15.7248H12.3299V12.53V10.6464H15.7248H19.1196V12.53ZM19.1196 18.9347V20.8184H15.7248H12.3299V18.9347V17.051H15.7248H19.1196V18.9347ZM19.1196 25.3393V27.223H15.7248H12.3299V25.3393V23.4556H15.7248H19.1196V25.3393Z" fill="#A3A3A3"/>
<path d="M36.0308 8.13474V9.76732H38.3146H40.5984V16.1092V22.451H42.5737H44.5488V16.1092V9.76732H46.8327H49.1165V8.13474V6.5022H42.5737H36.0308V8.13474Z" fill="#A3A3A3"/>
<path d="M50.5978 14.4766V22.451H56.5851H62.5725V20.8184V19.1859H58.5604H54.5482V17.5534V15.9208H57.9431H61.338V14.2882V12.6557H57.9431H54.5482V11.2115V9.76732H58.4987H62.4491V8.13474V6.5022H56.5234H50.5978V14.4766Z" fill="#A3A3A3"/>
<path d="M64.425 14.4766V22.451H66.4002H68.3755V19.6882V16.9255H69.8569C71.4618 16.9255 71.9432 17.051 72.4122 17.5659C72.8814 18.0934 73.0789 18.784 73.2023 20.3663C73.3752 22.7147 73.0912 22.451 75.5356 22.451C76.696 22.451 77.6342 22.4007 77.6342 22.3505C77.6342 22.3003 77.5725 22.1872 77.4984 22.1119C77.412 22.024 77.2762 21.1826 77.1898 20.2282C76.8935 17.2394 76.3874 16.1092 75.0542 15.4561L74.3011 15.0919L74.9554 14.8534C75.8813 14.5143 76.9306 13.4217 77.1898 12.5301C77.6219 11.0482 77.2886 9.25247 76.3874 8.22266C75.7331 7.46917 74.4245 6.80359 73.2517 6.62778C72.7826 6.56499 70.5976 6.5022 68.4125 6.5022H64.425V14.4766ZM72.4122 10.0185C73.0912 10.3325 73.4369 10.8975 73.4369 11.7138C73.4369 12.5301 73.0912 13.0952 72.4122 13.4092C71.9802 13.6101 71.5975 13.6603 70.1408 13.6603H68.3755V11.7138V9.76732H70.1408C71.5975 9.76732 71.9802 9.81754 72.4122 10.0185Z" fill="#A3A3A3"/>
<path d="M79.241 14.4766V22.451H81.0927H82.9445L82.9692 17.5533L83.0062 12.6556L84.1666 16.5863C84.8086 18.7337 85.4752 20.9439 85.6357 21.4839L85.9196 22.4635L87.3024 22.4258L88.6848 22.3881L90.117 17.5784C90.9068 14.9287 91.5858 12.731 91.6355 12.6933C91.6722 12.6431 91.7097 14.8282 91.7097 17.5281V22.451H93.5616H95.4127V14.4766V6.5022L92.9813 6.52731L90.549 6.56499L89.5366 9.76723C88.9816 11.5254 88.2528 13.811 87.9317 14.8282C87.6105 15.8454 87.3024 16.6366 87.2529 16.5863C87.2159 16.536 86.5493 14.5016 85.7962 12.0905C85.0308 9.66678 84.3271 7.4315 84.2283 7.09243L84.0308 6.5022H81.6359H79.241V14.4766Z" fill="#A3A3A3"/>
</g>
</g>
<defs>
<clipPath id="clip0_70_40">
<rect width="96" height="32" fill="white"/>
</clipPath>
</defs>
</svg>
